<?xml version="1.0" encoding="utf-8"?>
<!-- Generator: Adobe Illustrator 22.0.1, SVG Export Plug-In . SVG Version: 6.00 Build 0)  -->
<svg version="1.1" xmlns="http://www.w3.org/2000/svg" xmlns:xlink="http://www.w3.org/1999/xlink" x="0px" y="0px"
	 viewBox="0 0 256 256" enable-background="new 0 0 256 256" xml:space="preserve">
<g id="Layer_1" display="none">
	<circle display="inline" fill="none" stroke="#000000" stroke-width="4" stroke-miterlimit="10" cx="70.3" cy="77" r="46"/>
	<circle display="inline" fill="none" stroke="#000000" stroke-width="4" stroke-miterlimit="10" cx="170.8" cy="159.4" r="67.3"/>
	<path display="inline" fill="none" stroke="#000000" stroke-width="4" stroke-miterlimit="10" d="M217.7,150.3
		c0-24.3-20.9-44-46.8-44"/>
</g>
<g id="having_kids" display="none">
	<path display="inline" d="M70.6,92.2c14,0,22.7-17.4,15.4-30.9c2.9-4.3,3.4-10.6,1-16.9C86.5,43,85,42.5,84.1,43
		c-12.5,6.3-17.8,0-25.6,3.4c-7.2,3.4-9.2,11.1-9.2,11.1c-1.9,7.7,1.9,13.5,3.4,15.4C53.2,84,60.9,92.2,70.6,92.2z M70.6,87.4
		c-12.5,0-17.4-18.8-10.1-27c6.8,6.8,15.9,7.2,21.7,3.9C87,74.8,80.7,87.4,70.6,87.4z M60.5,50.7c1.9-1,3.9-1,6.3-0.5
		c5.3,0.5,10.6,0.5,16.9-1.9c4.3,14.9-12.5,17.4-21.2,7.2c-0.5-0.5-1-1-1.4-1c-2.4,0-6.3,5.3-7.2,9.2C52.7,58,56.1,52.7,60.5,50.7z
		 M150.1,79.2c4.8-4.3,5.3-8.7,5.8-12.5c1.9-15.4,9.6-25.6,25.1-23.1c14.9-1.9,23.1,7.7,25.1,23.1c0.5,3.9,1,8.7,5.8,12.5
		c2.4,1.9-1,7.7-2.9,10.1c-2.4,2.9-6.3,4.3-7.2,4.3c-2.4,0-3.4-3.4-1-4.3c3.4-1.4,5.8-4.3,6.8-7.7c-5.3-4.8-5.8-10.1-6.8-14.5
		c-1-6.3-2.9-13.5-7.7-16.9c-5.3-3.9-12.1-2.4-13-2.4c-2.9-0.5-8.2-0.5-12.5,2.4c-2.4,1.9-3.9,3.9-4.8,6.3c-4.8,9.6-1,16.9-9.6,25.6
		c1,3.4,3.4,6.3,6.8,7.7c2.9,1,1.4,5.3-1.4,4.3c-1.9-0.5-4.3-1.9-6.3-4.3C151.1,87.4,148.2,81.1,150.1,79.2z M183.4,53.1
		c-4.3,6.8-10.6,12.1-18.3,15.4c-2.4,1-1.4,4.3,1,4.3l0,0c2.9,21.7,26,22.2,29.9,1c3.4,1.4,4.8-2.9,1.9-3.9
		c-5.3-2.4-10.1-5.8-14-10.6c1-1,1.9-2.4,2.4-3.4C188.7,53.1,184.9,50.7,183.4,53.1z M192.1,72c-1,7.7-5.8,13.5-10.6,13.5
		c-5.3,0-9.6-5.8-10.6-13c0-0.5,0-0.5-0.5-1c3.9-2.4,7.7-4.8,11.1-8.2C184.4,66.7,187.8,69.5,192.1,72z M214.3,172.3
		c-1.4-8.2-3.4-16.4-6.8-24.1v-35.2c0-8.7-4.8-16.9-12.5-21.2c-1.4-1.4-4.3,0-3.9,2.4c-2.9,11.6-16.9,10.1-18.8,0
		c0.5-2.4-2.4-3.4-3.9-1.9c-7.7,3.9-12.5,11.1-12.5,18.8c0,1,0,1.9,0,2.4c-11.1-6.3-22.7,1.9-22.7,12.5
		c-9.6,4.8-10.1,11.1-10.1,15.4c0,2.4-0.5,2.9-1,3.4c-1.4,0.5-1.9,2.4-1,3.4c-1,0-3.4-0.5-4.3,0c0,0-1,0.5-1.4,1
		c-7.2,3.9-12.5-0.5-14-1v-2.9c8.2,7.2,20.7,1,20.7-12.5c2.9-12.5,0-21.2-1.4-22.7c0,0-0.5,0-0.5-0.5c-1-0.5-2.9-0.5-4.3,1.4
		c-1.9-1.9-4.8-2.4-6.8,0c-1.9-2.4-4.8-2.4-6.8,0c-0.5-0.5-0.5-0.5-1-1C101,95.6,85,88.8,82.6,90.8c-7.2,5.8-16.9,5.8-24.1,0
		c-2.9-1.9-19.3,4.8-19.3,19.8c0,0.5,0,45.8,0,46.3c0,7.2,1.9,5.8,10.6,5.8v55c-1.4,1.4-2.4,3.4-2.4,5.8v2.9c0,3.4,2.4,5.8,5.8,5.8
		h34.7c2.9,0,4.8-1.9,5.8-4.3c0.5,2.4,2.9,4.3,5.8,4.3h20.3c5.8,0,7.7-7.7,3.4-11.6v-19.8c1.9,1.9,7.2,4.3,14,5.8
		c0.5,2.9,1,8.2,1.4,13.5c-5.3,3.9-4.8,12.1,1,12.1h17.8c2.9,0,4.8-2.4,4.8-4.8c0-2.9-1.4-5.3-3.9-7.2c0.5-5.3,1-10.6,1.4-13.5
		c2.9-0.5,5.3-1.4,7.7-2.4l1,14.5c-7.7,2.4-8.2,13-1.4,13H196c2.9,0,4.8-2.4,4.8-4.8c0-3.9-2.4-7.2-5.8-8.2l2.4-37.6
		c5.8-1.4,11.1-3.9,15.9-6.8C213.8,174.2,214.3,173.2,214.3,172.3z M202.7,138.5c-1.9-3.4-3.9-6.8-6.3-10.1
		c-1.4-15.9,6.3-16.4,2.4-27.5C203.7,107.6,202.7,111.5,202.7,138.5z M163.7,100.4c-4.8,12.1,2.9,12.1,1.9,27.5
		c-1-0.5-1.9-1-2.9-1.9c0-3.4-1-6.8-3.4-9.2C160.8,113.4,158.3,106.7,163.7,100.4z M148.2,142.8c-7.2,0-11.6-12.5-7.7-14.9
		c1.4-1,4.8-1,7.7-2.9c3.9,2.9,9.2,1,9.2,5.8C157.4,136.1,153.5,142.8,148.2,142.8z M161.7,131.3v-0.5c7.2,4.3,6.3,9.2,6.8,13.5
		C165.1,143.8,161.7,141.4,161.7,131.3z M148.2,115.4c4.8,0.5,9.2,3.9,10.1,8.2l0,0c-2.9-1.9-6.8-1-8.2-3.4c-1-1.4-2.9-1.4-3.9,0
		c-1.4,2.4-5.3,1.9-8.2,3.4C139.1,119.2,142.9,115.8,148.2,115.4z M134.2,130.8v0.5c0,10.1-3.4,12.1-7.2,12.5
		C128,140,126.5,135.1,134.2,130.8z M118.3,152.5c4.8,0,9.2,4.3,9.2,9.2v6.3h-4.3v-4.3c0-2.9-4.3-2.9-4.3,0c0,13.5,0,10.1,0,23.1
		h-18.3c0-13,0-10.1,0-23.1c0-2.9-4.3-2.9-4.3,0v4.3h-4.3v-6.3c0-4.8,4.3-8.7,9.2-8.7C105.8,155.9,113,155.9,118.3,152.5z
		 M136.2,156.3c-1,5.8-1.9,11.1-3.4,16.4C132.3,167.4,133.3,161.7,136.2,156.3z M125.6,192.5c-1,0.5-1.4,1-2.4,1.4
		c0-7.7,0-14,0-22.2h4.3C127.5,188.7,128.4,190.1,125.6,192.5z M91.3,172.3h4.3c0,7.7,0,14,0,22.2c-2.4-1-4.3-3.4-4.3-6.3V172.3z
		 M109.2,143.8c-4.8,0-8.7-4.8-8.7-10.1c0-7.2,0-10.1,8.7-10.1s8.7,3.4,8.7,10.1C117.8,139,114,143.8,109.2,143.8z M106.3,114.4
		c1.9,2.4,4.8,2.4,6.8,0c1.4,1.9,3.9,1.9,5.8,1c0.5,1.4,1,4.3,1,5.8c-4.3-3.9-15.4-3.9-19.8,0c0-1.4,0.5-4.3,1-5.8
		C101.9,116.3,104.3,116.3,106.3,114.4z M56.6,95.6c8.2,5.8,19.3,6.3,28,0c7.2,1.9,12.5,8.2,12.5,15.4v0.5c-1.4,2.4-1.9,7.2-2.4,9.2
		c-0.5,3.9,0.5,8.2,1.4,12.1c0,1.9,0,3.9,1,5.8c0,0.5,0,9.2,0,9.6c-2.4,0.5-4.3,1.4-5.8,2.9c0-0.5,0,2.9,0-38.1c0-2.9-4.3-2.9-4.3,0
		v34.2H54.7v-34.2c0-2.9-4.3-2.9-4.3,0v34.2h-6.3v-37.1C44.1,103.8,48.9,97.5,56.6,95.6z M44.1,152.5h5.8c0,3.9,0,4.8,0,5.8
		C43.1,158.3,44.1,158.8,44.1,152.5z M54.7,152.5H87c0,45.3,0,31.3,0,63.7c-0.5,0-13,0-14,0V166c0-1.4-1-2.4-2.4-2.4
		c-1.4,0-2.4,1-2.4,2.4v50.2c-0.5,0-13,0-14,0C54.7,202.6,54.7,165.5,54.7,152.5z M87.9,227.7H53.2c-1.4,0-1.4-1.9-1.4-3.9
		c0-1.4,1.4-2.9,2.9-2.9h13.5v1.4c0,2.9,4.3,2.9,4.3,0V221H86c1.4,0,2.9,1.4,2.9,2.9C89.4,225.8,89.4,227.7,87.9,227.7z M93.7,223.4
		c0-2.4-1-4.3-2.4-5.8v-20.7c1.4,1,2.9,1.9,4.3,1.9v21.7C94.7,221.5,94.2,222.4,93.7,223.4z M119.3,227.7H99c-0.5,0-1.4-0.5-1.4-1.4
		v-0.5c0-1.4,1.4-2.9,2.9-2.9h6.3c0,2.9,4.3,2.9,4.3,0h6.3C121.2,222.9,121.7,227.7,119.3,227.7z M111.6,218.6v-20.7
		c0-2.9-4.3-2.9-4.3,0v20.7c-0.5,0-6.3,0-6.8,0c0-0.5,0-20.7,0-21.2c0-0.5,0-5.8,0-6.3h18.3c0,0.5,0,5.8,0,6.3s0,20.7,0,21.2
		C117.8,218.6,112.5,218.6,111.6,218.6z M141.5,207.5c1.4,0,2.9,0.5,4.3,0.5v10.6c-2.4,0-2.4,0-3.4,0
		C142,214.7,142,210.4,141.5,207.5z M156.9,227.7h-17.8c0,0-0.5,0-0.5-0.5c0-2.4,1.9-4.3,4.3-4.3h2.4c0,2.9,4.3,2.9,4.3,0h2.4
		C155.5,222.9,157.4,224.8,156.9,227.7C157.4,227.2,156.9,227.7,156.9,227.7z M150.1,218.6v-10.6c1.4,0,2.9,0,4.3-0.5
		c-0.5,2.9-0.5,6.8-1,11.1C153,218.6,153,218.6,150.1,218.6z M127.5,198.3c0.5-1,1-1.4,1.4-2.4c1.9-1.9,2.9-4.3,3.4-6.8
		c5.3-12.1,8.2-23.6,9.2-36.2c4.3,1.9,9.2,1.9,13.5,0c1.4,14.5,4.8,27.5,11.6,41l0.5,5.8C154.5,205.5,137.1,204.1,127.5,198.3z
		 M183.4,218.6v-35.2c2.9,0,5.8-0.5,8.7-1l-2.4,36.2H183.4z M179.1,218.6h-6.8l-1-16.4c4.3-2.9,2.9-2.9-0.5-9.6l-0.5-10.1
		c2.9,0.5,5.8,1,8.7,1C179.1,183.4,179.1,218.6,179.1,218.6z M163.2,172.7c-1.4-5.8-2.4-11.1-3.4-16.4
		C162.7,161.7,163.7,167.4,163.2,172.7z M196,227.2C196,227.2,196,227.7,196,227.2l-29.4,0.5c0,0-0.5,0-0.5-0.5
		c0-2.4,1.9-4.3,4.3-4.3h8.7c0.5,2.4,3.9,2.4,4.3,0h8.2C194,222.9,196,224.8,196,227.2z M167,177.1c2.9-9.6,0.5-20.3-8.2-29.4
		c-0.5-0.5-1-0.5-1.4-0.5c-0.5,0-1,0-1.4,0.5c-4.8,2.9-10.1,2.9-14.9,0c-0.5,0-0.5-0.5-1-0.5c-0.5,0-0.5,0-1,0
		c-1.9,0.5-6.3,6.3-7.7,9.6c-1.4-3.4-3.9-6.3-7.2-7.7c6.3,0,11.6-1.4,14-7.7c5.3,8.2,15.4,8.2,20.7,0c2.4,6.3,7.2,7.7,13.5,7.7
		c1,0,2.9,0,3.4-1.9c0-1-0.5-1.9-1.4-2.4c-0.5-0.5-0.5-1-1-3.4c-0.5-2.9-0.5-6.8-3.4-10.1c0.5-0.5,0.5-1,0.5-1.4
		c1-10.6-2.4-17.8-2.4-17.8c-1.9-5.3-1.4-6.8,1-12.5c5.8,9.2,18.8,9.2,24.1,0c2.4,6.3,3.4,6.8,1,12.5c-3.4,8.7-2.4,17.4-1.9,18.3
		c7.2,10.1,10.6,19.8,10.6,19.8c2.9,6.8,4.8,14,6.3,21.2C196.4,178.5,182,180.9,167,177.1z"/>
</g>
<g id="home" display="none">
	<g display="inline">
		<rect x="174.7" y="110.1" width="8.2" height="8.2"/>
		<rect x="174.7" y="131.8" width="8.2" height="8.2"/>
		<rect x="174.7" y="153.9" width="8.2" height="8.2"/>
		<rect x="174.7" y="175.6" width="8.2" height="8.2"/>
		<rect x="92.8" y="131.8" width="7.2" height="7.2"/>
		<rect x="71.1" y="131.8" width="7.2" height="7.2"/>
		<rect x="92.8" y="155.4" width="7.2" height="7.2"/>
		<rect x="71.1" y="155.4" width="7.2" height="7.2"/>
		<rect x="92.8" y="179.5" width="7.2" height="7.2"/>
		<rect x="71.1" y="179.5" width="7.2" height="7.2"/>
		<path d="M35.4,231.6v-6.3h12.1V117.8c0-5.3,4.3-9.6,9.6-9.6h45.3V55.6c0-2.9,2.4-5.3,5.3-5.3h68c2.9,0,5.3,2.4,5.3,5.3V84h15.9
			c5.8,0,10.1,4.3,10.1,10.1v131.7h14v6.3H35.4V231.6z M187.8,225.8h13.5V94.1c0-1.9-1.9-3.9-3.9-3.9h-47.7c-1.9,0-3.9,1.9-3.9,3.9
			v131.7h14v-28.9h28C187.8,196.9,187.8,225.8,187.8,225.8z M165.6,225.8h15.9v-22.7h-15.9V225.8z M108.7,108.1h5.8
			c5.3,0,9.6,4.3,9.6,9.6v108h15.4V94.1c0-5.8,4.3-10.1,10.1-10.1h25.6V57h-66.5V108.1z M57.1,114.4c-1.9,0-3.4,1.4-3.4,3.4v108
			h64.1v-108c0-1.9-1.4-3.4-3.4-3.4C114.5,114.4,57.1,114.4,57.1,114.4z"/>
	</g>
</g>
<g id="married" display="none">
	<g display="inline">
		<path fill="#232020" d="M67.2,76.8c-1.4-1.9-5.3-8.2-3.4-15.4c0,0,1.9-7.7,9.2-11.1c3.4-1.4,5.8-1,8.7-1
			c14.9,1.4,18.3-5.8,20.3-1.4c2.4,6.3,2.4,12.5-1,16.9C107.7,78.2,99,95.6,85,95.6C75.9,95.6,68.2,87.4,67.2,76.8z M97.6,67.6
			c-6.3,3.9-15.9,2.4-22.2-3.9c-8.2,9.2-2.4,27.5,10.1,27.5C95.7,91.2,102.4,78.2,97.6,67.6z M68.2,67.6c1.4-4.3,6.3-11.6,9.2-8.7
			c1.9,2.4,4.3,4.3,7.2,5.3c3.4,0.5,6.3-2.4,5.3-5.3c0-1.4,0.5-2.4,1.9-2.4c3.4-0.5,3.4,5.3,1.4,8.7c5.8-1.4,7.2-7.2,5.8-13
			c-10.1,3.9-16.9,1.9-20.3,1.9c-5.3,0-9.2,4.8-10.1,8.7C67.7,64.2,67.7,66.2,68.2,67.6z M137.1,112.5c-1.4-19.8,11.1-49.2,13-52.6
			c6.3-11.1,25.6-11.1,31.3,0c1.9,3.4,14.5,32.8,13,52.6c0,1.4,1,2.4,2.4,2.4c1,0,1.9-1,2.4-1.9c1.4-22.7-13-54.5-13.5-55
			c-7.7-14.5-31.8-14.5-39.5,0c0,0.5-14.9,32.3-13.5,55C132.8,115.8,137.1,115.4,137.1,112.5z M182,71.5c1,0.5,1.4,1.9,1,2.9
			s-1.4,1.4-2.9,1.4c-3.9,20.7-26,20.7-29.4,0c-2.9,1.4-4.8-2.9-1.9-3.9c2.9-1.4,5.8-2.9,8.2-5.3c6.3-5.3,5.8-7.7,8.2-7.7
			s1.9,2.4,8.2,7.7C176.2,68.6,179.1,70,182,71.5z M176.2,73.4c-3.9-2.4-7.2-5.3-10.6-8.7c-3.4,3.9-6.8,6.3-10.6,8.7c0,0,0,0,0,0.5
			c1,7.2,5.3,13,10.6,13C170.9,86.9,175.2,81.1,176.2,73.4z M189.2,145.3c16.4,23.6,20.7,49.7,14,80.5c0,1-1,1.9-2.4,1.9h-69.9
			c-1,0-1.9-1-2.4-1.9c-8.2-37.1-0.5-66.5,24.6-94c-0.5-3.4-1-6.8-1.9-9.6c-3.9,11.6-10.1,21.2-18.8,29.9c-1.4,1.9-3.9,2.9-5.8,2.9
			c-1.9,0-3.9-1-5.3-1.9c-0.5-0.5-3.4-3.4-3.9-3.9c-3.4-3.9-8.7-11.6-12.1-20.7l-5.3,87.8c1,0.5-1.9-1,7.2,3.9
			c3.9,1.9,2.4,8.2-1.9,8.2c-0.5,0-40,0-39.5,0c-4.3,0-5.8-6.3-1.9-8.2c9.2-4.8,6.3-3.4,7.2-3.9l-5.3-83.9L61.4,152
			c0,0,0-0.5-2.4,11.1c-1,3.9-8.2,0.5-11.1-3.9c-2.4-3.9-2.4-7.2-1.9-11.1c5.3-27.5,5.8-26,9.6-44.8c0.5-3.4,3.4-6.3,6.8-7.2
			c8.7-1.9,9.2-1.9,10.1-1.9c1.4,0.5,2.9,3.4,10.6,4.8c4.3,0.5,10.1-0.5,14.5-3.9c0.5-1,1.9-1,2.4-1l8.7,1.9
			c11.6,2.9,3.4,17.4,17.8,40c20.7-22.7,4.3-37.1,26-44.4c1.9-0.5,3.4,1.4,2.9,2.9c-0.5,1-1,1.4-1.9,1.4
			c-17.4,5.8-1.9,19.8-24.1,43.4c2.4,2.4,2.9,2.9,3.9,4.3c7.2-8.7,12.5-18.3,14.9-28.9c-4.3-11.6,7.2-20.7,17.4-12.5
			c7.7-6.8,18.3-2.4,18.3,8.2c0,1,0.5,1.9,0.5,3.4c0.5,7.2,1,11.6,0,17.4c-0.5,2.4-1,4.3-1.9,6.3c-2.4,5.8-5.3,10.6-10.1,15.9
			c-1,1-1,2.4,0,3.4s2.4,1,3.4,0c6.8-6.8,11.6-15.4,13.5-24.6c1.4-6.8,1-11.6,0.5-18.8c-1-8.2-2.9-14.5-12.1-17.8
			c-2.9-1-1.4-5.3,1.4-4.3c4.8,1.9,8.7,4.3,11.1,8.2c2.9,3.9,3.4,7.7,3.9,13C194,122.1,195.5,132.2,189.2,145.3z M78.3,102.3
			c-1,0-1.4-0.5-2.4-1l1,2.4C77.3,103.8,78.3,102.8,78.3,102.3z M82.6,104.3l1.4,1.4H87l1.4-1.4l-1-1c-1,0-2.4,0-3.4,0L82.6,104.3z
			 M83.1,139l2.4,2.4l2.4-2.4L86,110.5h-0.5L83.1,139z M94.2,103.8l1-2.4c-1,0.5-1.4,0.5-2.4,1L94.2,103.8z M56.6,153.9l-6.3-1.4
			c0,3.4,1.9,6.3,4.8,7.7L56.6,153.9z M87.9,219.5c0,2.9-4.3,2.9-4.3,0c-10.6,0-7.7-1-16.4,3.9h37.1
			C95.7,218.6,98.5,219.5,87.9,219.5z M95.7,214.7l3.9-59.8H72l3.4,59.8c1,0-1.9,0,7.7,0v-46.3c0-2.9,4.3-2.9,4.3,0v46.3
			C97.6,214.7,94.7,214.7,95.7,214.7z M119.3,144.3l4.3-4.3c-5.3-8.2-8.7-16.9-10.6-26.5c-2.4-13.5-1-11.6-12.1-14l-3.9,9.6
			c-0.5,1-1,1.4-1.4,1.4c-1.4,0.5-1.9-1-3.9-2.9l-1.4,1l2.4,30.9c0,0.5,0,1.4-0.5,1.9c-6.8,6.8-5.3,6.8-12.1,0c-1-1-1,0,1.4-32.3
			l-1.4-1.4l-1.9,1.9c-1.4,1.4-3.4,1-4.3-1L70.1,99c-12.5,2.9-8.7,0-14,22.2c-1,4.8-2.4,10.6-5.8,26.5c1,0,0.5,0,6.8,1.4
			c7.7-35.2,6.8-30.4,7.2-33.8c0-0.5,0-0.5,0.5-1l0.5-0.5c0,0,0.5-0.5,1-0.5h0.5h0.5h0.5c0.5,0,0.5,0.5,0.5,0.5l0.5,0.5
			c0,0,0,0.5,0,1l2.4,34.7h28.5l2.4-35.7c0-1.4,1-2.4,2.4-1.9c1.4,0,1.9,1,1.9,2.4C106.7,116.3,108.7,129.8,119.3,144.3z
			 M128.9,145.3l-1.9-1.9l-4.3,4.3c1.9,1.9,2.9,2.9,4.3,2.9C129.4,150.6,130.4,147.2,128.9,145.3z M179.1,132.7
			c1-3.4,1.4-6.3,1-11.1c-1,3.4-1.9,6.8-1.9,10.1C178.6,132.2,179.1,132.7,179.1,132.7z M155.5,119.7c1.4,3.9,1.9,7.7,2.4,11.6
			c4.8,3.4,11.1,2.9,15.9-0.5c0.5-6.3,1.9-10.6,3.9-15.4c1.9-3.9,1.4-4.8,1.4-4.8c0-2.4-1-5.3-2.9-6.3c-2.4-1.4-6.3-0.5-8.7,2.4
			c-1,1-2.9,1-3.9,0c-3.9-4.3-10.6-4.8-11.6,2.4C151.6,112.9,153.5,114.9,155.5,119.7z M198.9,223.4c0.5-2.4,1-4.8,1.4-7.2
			c-3.9-2.9-6.8-3.4-11.1,0.5c-1,1-1.9,1-2.9,0s-3.4-2.9-5.8-2.9c-2.4,0-4.8,1.9-5.8,2.9c-1,1-1.9,1-2.9,0s-3.4-2.9-5.8-2.9
			s-4.8,1.9-5.8,2.9c-1,1-2.4,1-2.9,0c-1-1-3.4-2.9-5.8-2.9s-4.8,1.9-5.8,2.9c-1,1-1.9,1-2.9,0c-4.3-3.9-7.2-3.4-11.1-0.5
			c0.5,2.4,1,4.8,1.4,7.2H198.9z M186.8,150.1c-2.4,3.9-4.8,7.2-8.2,10.6c-4.3,4.3-11.6,1.4-11.6-4.8c0-5.8,5.8-5.8,10.6-17.8
			c-0.5-1-1.4-1.4-1.9-2.4c-5.8,3.4-13,3.9-19.3,0c-20.3,22.7-28.5,46.8-25.6,75.7c4.3-2.4,8.2-2.4,13,1c5.3-3.4,9.6-3.4,14.5,0
			c5.3-3.4,9.6-3.4,14.5,0c5.3-3.4,9.6-3.4,14.5,0c4.8-3.4,8.7-3.4,13-1C203.2,188.2,198.9,168.4,186.8,150.1z"/>
	</g>
</g>
<g id="passion">
	<g>
		<path fill="none" stroke="#000000" stroke-width="5" stroke-linecap="round" stroke-linejoin="round" stroke-miterlimit="10" d="
			M103.9,168.9c-7.7-7.7-12.1-17.8-12.1-28.5s4.3-21.2,12.1-28.5c7.7-7.7,17.8-12.1,28.5-12.1s21.2,4.3,28.5,12.1l7.7,7.7l7.7-7.7
			c7.7-7.7,17.8-12.1,28.5-12.1c10.6,0,21.2,4.3,28.5,12.1c7.7,7.7,12.1,17.8,12.1,28.5c0,10.6-4.3,21.2-12.1,28.5L169,234
			L103.9,168.9z"/>
		<path fill="none" stroke="#000000" stroke-width="5" stroke-linecap="round" stroke-linejoin="round" stroke-miterlimit="10" d="
			M225.4,141.4H221c0-9.6-8.2-17.8-17.8-17.8v-4.3C215.7,119.2,225.4,129.3,225.4,141.4z"/>
		<path fill="none" stroke="#000000" stroke-width="5" stroke-linecap="round" stroke-linejoin="round" stroke-miterlimit="10" d="
			M223.5,141.4c0-11.1-8.7-19.8-19.8-19.8"/>
	</g>
	<g>
		<path fill="none" stroke="#000000" stroke-width="5" stroke-linecap="round" stroke-linejoin="round" stroke-miterlimit="10" d="
			M13.7,84.5c-9.2-9.2-9.2-24.6,0-33.8c4.3-4.8,10.1-7.2,16.9-7.2c6.3,0,12.5,2.4,16.9,7.2l2.4,2.4l2.4-2.4
			c4.3-4.3,10.6-7.2,16.9-7.2s12.5,2.4,16.9,7.2c4.3,4.3,7.2,10.6,7.2,16.9S90.8,80.2,86,84.5l-36.2,36.2L13.7,84.5z"/>
	</g>
</g>
<g id="protection" display="none">
	<g display="inline">
		<path fill="#232020" d="M139.1,232.1l-10.1-27.5H98.5l-19.8,28c-0.5,1-1.4,1.4-2.4,1.4c-0.5,0-1,0-1.4-0.5c-1.4-1-1.4-2.9-0.5-3.9
			L153,117.8c0.5-1,1.4-1.4,2.4-1.4H209c1,0,1.4,0.5,1.9,1c0.5,0.5,1,1.4,1,1.9c-1.4,28-11.1,48.7-29.9,61.7l-0.5,0.5l17.8,48.7
			c0.5,1.4,0,3.4-1.9,3.9c-0.5,0-0.5,0-1,0c-1.4,0-2.4-1-2.9-1.9l-17.4-47.7l-0.5,0.5c-9.6,5.8-21.2,9.2-34.7,11.1l-1.9-5.8
			c28.5-3.4,62.7-17.4,66.5-67.5v-0.5h-46.8v0.5c2.4,8.7,5.3,25.1-4.3,39.1c-4.3,6.8-11.1,12.1-20.3,15.4l-1.9-5.3
			c7.7-3.4,13.5-7.7,17.4-13.5c7.2-11.1,5.8-24.6,4.3-31.8l-0.5-1.4l-31.3,44.4l21.7,59.8c0.5,1,0,1.4,0,2.4c-0.5,0.5-1,1.4-1.4,1.4
			c-0.5,0-0.5,0-1,0C140.5,234,139.5,233,139.1,232.1z M118.8,176.1l-15.9,22.7H127L118.8,176.1z M88.9,193c-2.9-0.5-4.3-1-4.3-1
			c-1.4-0.5-1.9-1.4-1.9-2.9v-8.2c0-1,0.5-1.4,1-1.9c0.5-0.5,1.4-1,1.9-1l0,0c2.9,0,6.3,0,9.2,0c1.4,0,3.4,0,4.8,0l-4.3,5.8
			c-1.9,0-4.3,0-6.3,0h-0.5v2.9h0.5c1,0,2.4,0.5,3.9,1L88.9,193z"/>
		<g>
			<path fill="#232020" d="M103.4,169.4V83.5H84.1V84c-0.5,1.9-1.9,2.9-3.4,2.9c-1,0-1.4-0.5-1.9-1c-0.5-0.5-0.5-1-0.5-1.4v-1H46.9
				L46.5,84c-0.5,0.5-1,1-1.4,1.9c-0.5,0.5-1.4,1-2.4,1l0,0c-0.5,0-1,0-1.4-0.5c-0.5-0.5-1-1-1.4-1.4c0-0.5,0-1,0.5-1.4
				c14-17.8,36.2-30.9,62.7-37.1h1v-2.9c0-1.4,1.4-2.4,2.9-2.4s2.9,1,2.9,2.4v3.4h1c26.5,5.8,48.7,18.8,62.7,37.1
				c0.5,0.5,0.5,1,0.5,1.4c0,0.5-0.5,1-1.4,1.4c-0.5,0.5-1,0.5-1.4,0.5c-1,0-1.9-0.5-2.4-1c-0.5-0.5-1-1.4-1.4-1.9l-1.4-1h-30.9v1
				c0,0.5,0,1.4-0.5,1.4c-0.5,0.5-1.4,1-1.9,1c-1.4,0-2.9-1-3.4-2.9v-0.5h-19.3v86.3h-6.3V169.4z M94.2,53.6l-3.4,1
				c-14.9,5.3-28.5,13-38.6,22.7l-1.4,1.4h28.5v-0.5c3.4-9.2,7.2-16.4,12.5-22.2L94.2,53.6z M106.3,50.7L106.3,50.7
				C95.2,57,88.9,70.5,86,77.7l-0.5,1.4H127l-0.5-1.4C123.6,70.5,117.4,57,106.3,50.7L106.3,50.7z M118.3,53.6l1.9,2.4
				c4.8,5.8,9.2,13.5,12.5,22.2v0.5h28.5l-1.4-1.4c-10.1-9.6-23.1-17.4-38.6-22.7L118.3,53.6z"/>
		</g>
	</g>
</g>
<g id="living_well" display="none">
	<g display="inline">
		<path d="M191.2,76.5c12.1,2.4,23.7,8.7,31.5,18.4c1.9,2.4,5.8-1,3.9-3.4c-8.7-10.2-21.3-17.4-34.4-19.9c-1.5-0.5-2.9,0.5-2.9,1.9
			C188.8,75,189.8,76.5,191.2,76.5z"/>
		<path d="M228.5,102.6c3.9,0,3.9-5.8,0-5.8C224.6,96.8,224.6,102.6,228.5,102.6z"/>
		<path d="M231,143.3v-12.6c0-27.6-22.8-50.4-50.4-50.4h-1.5c0-0.5,0-1,0-1.9c8.2-9.2,0-26.7-11.6-23.3l0,0
			c-9.2-4.8-22.3-1.5-28.1,7.8c-5.8,8.7-3.9,25.2,6.3,35.4c-5.8,18.9-20.4,33.9-39.7,39.3c-1,0.5-1.9,0.5-2.4,1c-0.5,0-0.5,0.5-1,1
			l0,0l0,0l-18.4,18.4l0,0c-0.5,0.5-0.5,0.5-1,1c-4.4,2.4-9.2,2.4-13.6,0l0,0l-0.5-0.5l0,0h-0.5H32.2c-4.4,0-7.8,3.4-7.8,7.8
			s3.4,7.8,7.8,7.8h25.2l0,0l0,0c1.5,0,2.4,1,2.4,2.4c0,0.5,0,16,0,17v28.6c-2.4,2.4-2.9,5.3-2.4,7.8H57v4.8c9.7,0,17.9,0,29.1,0
			c0,0-1,0,5.8,0v-10.2c-0.5-1-1-1.9-1.9-2.9v-28.6v-0.5c0-13.6-1-18.4,3.9-23.7l11.6-11.6c1.9,0.5,3.4,0.5,5.3,0
			c1.9-0.5,7.8-2.9,8.7-2.9c13.1-5.3,24.7-14.5,33-26.2c0,14.5,0,82.9,0,91.6c0,1-1,1.9-1.9,1.9h-2.9c-4.8,0-8.7,3.4-9.7,7.8h-0.5
			v4.8c17.4,0,40.2,0,70.8,0v-13.1l0,0c0-17.9,0-61.6,0-102.3c1.9,3.9,2.4,8.2,2.4,12.1v17.4c0,2.4,1,4.8,2.4,6.8v65.9v8.2v4.8
			c1.5,0,3.4,0,4.8,0v-20.8l0,0v-54.8c6.3,1.5,12.1-2.9,12.6-9.2c1.5,1.5,2.4,3.4,2.4,5.8c0,1.5,1,2.4,2.4,2.4s2.4-1,2.4-2.4
			C238.7,150.1,235.8,145.3,231,143.3z M55,169H32.2c-1.5,0-2.4-1-2.4-2.4s1-2.4,2.4-2.4H55C55,164.2,55,169,55,169z M86.5,229.1
			H63.3c-0.5,0-1-0.5-1-1.5v-0.5c0-1.5,1.5-2.9,2.9-2.9h7.3c0,3.4,4.8,3.4,4.8,0h6.8c1.5,0,2.9,1.5,2.9,2.9
			C87.5,228.2,87.5,229.1,86.5,229.1z M72.5,206.8v12.6c-0.5,0-6.8,0-7.8,0v-24.7h20.4v24.7c-0.5,0-6.8,0-7.3,0v-12.6
			C77.3,203.4,72.5,203.4,72.5,206.8z M85.1,189.9H64.7v-0.5v-13.1c0-3.4-1.9-5.8-4.8-6.8v-5.3h6.3c5.8,2.9,12.6,2.9,18.4-0.5
			l3.9,3.9C84.1,173.4,85.1,179.2,85.1,189.9z M92.3,163.2l-3.4-3.4l9.7-9.7l0,0c0.5,1.9,1.5,3.4,2.4,4.4L92.3,163.2z M169.9,61.4
			c0.5-0.5,1-1,1-1.5c3.4,0.5,5.8,3.9,6.3,8.2c-3.4-1.9-7.8-1-10.2,3.9c-0.5-1-1-1.9-1.5-2.9C167.5,67.2,169.4,64.3,169.9,61.4z
			 M143.2,65.3c4.4-6.8,15-9.7,21.8-5.8c0.5,2.4-2.4,5.3-3.4,6.3c-1.9,1.9-0.5,8.7,5.8,12.6c1.5,1,3.4,0,3.9-1.9
			c0.5-4.8,2.9-5.3,3.9-3.9c0.5,1,0.5,2.4-0.5,3.9c0,0,0,0,0,0.5c0,0.5,0,0.5,0,1c0,1.5,0.5,3.9,0,6.8
			c-1.9,12.1-13.1,20.4-23.3,12.1C140.3,87.6,138.9,72.6,143.2,65.3z M109.3,152.1c-1.5,0.5-2.4,0-3.4-0.5c-1.5-0.5-2.4-1.9-2.9-3.4
			c0-0.5,0,0,0-0.5s0,0,0-0.5c0-1,0.5-1.9,1-2.9c1.9-1.9,1.5-1,7.8-3.4l3.4,9.2C113.7,151.1,111.2,151.6,109.3,152.1z M166.5,229.1
			c1-1.5,2.4-2.4,4.4-2.4h2.9c3.9,0,7.3-3.4,7.3-7.3v-1.9c0,0,0-2.4,0-11.1v-40.2c0-3.4-4.8-3.4-4.8,0v48c0,2.9,0,2.4,0,5.3
			c0,1-1,1.9-1.9,1.9h-2.9c-4.8,0-8.7,3.4-9.7,7.8c-9.2,0-7.8,0-17.4,0c1.5-2.9,4.4-2.4,7.3-2.4c3.9,0,7.3-3.4,7.3-7.3
			c0-7.8,0-0.5,0-65.9h45.6v60.6c0,3.9,0-4.4,0,14.1C203.3,229.6,204.8,229.1,166.5,229.1z M226.1,148.7c0,2.9-2.4,4.8-4.8,4.8
			s-4.8-1.9-4.8-4.8v-2.4h10.2v2.4H226.1z M226.1,140.9h-10.2c0-11.1,0-11.1,0-13.1c-1-11.6-7.3-18.4-8.2-19.4
			c-2.4-2.9-5.3-5.3-8.2-7.3c-1-1-2.9-0.5-3.4,1c-1,1-0.5,2.9,1,3.4c2.4,1.5,4.4,3.4,6.3,5.3v37.8h-45.6v-29.1c0-0.5,0-0.5,0-0.5
			c0-0.5,0-0.5-0.5-1c0-0.5-0.5-0.5-0.5-0.5c-0.5,0-0.5-0.5-1-0.5h-0.5c-0.5,0-0.5,0-1,0s-0.5,0.5-1,0.5
			c-1.9,1.9-10.2,19.9-33.4,30.5l-3.4-9.2c15.5-7.3,27.6-20.8,33-37.3c12.1,7.8,26.2-1,29.1-16c29.1,0,47.5,21.8,47.5,45.6V140.9z"
			/>
		<path d="M85.6,150.6c1.5-3.4,1.9-7.3,1-11.1c-1-3.4-1.9-7.8-4.4-10.2c-2.9-3.4-7.3-4.4-13.1-2.9c-13.1,3.4-10.2,13.6-8.2,20.4
			C63.7,159.8,79.7,162.2,85.6,150.6z M70,131.2c7.8-1.9,9.2,1.9,11.1,9.7c1,2.9,0.5,5.3-0.5,7.8c-1.9,4.4-6.8,5.8-11.1,2.9
			c-1.9-1.5-3.9-3.9-4.4-6.3C63.3,137.5,62.3,133.2,70,131.2z"/>
	</g>
</g>
<g id="wealth" display="none">
	<g display="inline">
		<path fill="#232020" d="M201.3,242.7c-1,0-1.9-1-1.9-1.9s1-1.9,1.9-1.9s1.9,1,1.9,1.9C203.2,241.7,202.2,242.7,201.3,242.7z
			 M187.3,242.7c-1,0-1.9-1-1.9-1.9s1-1.9,1.9-1.9s1.9,1,1.9,1.9S188.2,242.7,187.3,242.7z M177.6,242.7c-1.4,0-2.9-1.4-2.9-2.9
			s1.4-2.9,2.9-2.9c1.4,0,2.9,1.4,2.9,2.9S179.1,242.7,177.6,242.7z M138.1,242.7c-1.9,0-2.9-1.4-2.9-2.9s1-2.9,2.9-2.9h9.6v-21.2
			c-1.4-6.8-4.8-12.5-10.1-17.8l-0.5-0.5l-1,0.5c-5.8,1.9-10.6,2.9-15.4,2.9c-9.6,0-17.4-3.4-22.7-10.1
			c-8.2-10.1-11.1-26.5-7.2-45.3c31.3,2.4,46.3,17.4,49.2,49.7v0.5l0.5,0.5c1.9,1.9,3.9,4.3,5.8,6.3l2.4,3.4v-30.4
			c0-5.8-4.3-9.6-8.2-13.5c-0.5-0.5-1.4-1.4-1.9-1.9c-10.6-10.1-13-14.9-11.6-28.9c6.3,1.4,10.6,2.9,16.4,8.7l2.4,1.9v-2.9
			c0-3.9,1-7.2,1.9-10.6c1.9-6.8,2.4-11.6,2.4-16.4c8.2,5.3,14,9.6,15.4,20.3c0.5,2.9,0.5,5.8-0.5,9.2l-0.5,2.9l2.4-1.4
			c5.3-2.9,11.6-3.9,16.4-4.3c-0.5,14.9-2.4,20.3-16.9,27.5l-1,0.5c-4.3,2.4-11.1,5.8-11.1,12.5v21.2l2.4-2.9
			c2.4-2.4,4.8-4.8,7.7-7.2l0.5-0.5v-0.5c1.4-17.8,14-24.1,25.1-24.1s22.7,5.8,30.9,15.9c-8.2,11.1-21.2,22.7-35.2,22.7
			c-6.8,0-13.5-2.9-18.8-9.2l-1-1l-1,1c-4.8,3.9-8.7,8.2-11.1,13.5l0,0v0.5v30.9h9.6c1.9,0,2.9,1.4,2.9,2.9s-1,2.9-2.9,2.9h-25.6
			V242.7z M196.9,178.1c1.4,0,1.9,1,1.9,1.9s-0.5,1.9-1.9,1.9c-4.8,0-14,1-23.6,5.3l-1.9,1l1.4,1.4c3.9,3.9,8.7,5.3,14,5.3
			c10.6,0,20.3-7.7,26-14.9l1-1l-1-1c-5.8-5.8-14-9.2-21.7-9.2c-9.2,0-16.4,4.8-18.8,12.5l-1.9,2.4l2.9-1.4
			C182.9,178.5,192.1,178.1,196.9,178.1L196.9,178.1z M95.2,151.5c-1.9,13.5,1,26,7.2,33.8c4.8,5.3,11.1,8.2,18.8,8.2
			c2.4,0,4.8-0.5,7.7-1l2.9-0.5l-1.9-1.4c-1.4-1.4-3.4-2.4-5.3-3.9c-7.7-5.8-15.9-11.6-20.3-19.3c-0.5-0.5-0.5-1,0-1.9
			c0.5-0.5,1-1,1.9-1c0.5,0,1,0.5,1.4,1c4.3,6.8,12.5,13,19.3,18.3c1.4,1,2.4,1.9,3.9,2.9l2.9,1.9l-0.5-3.4
			c-3.4-20.3-15.9-32.3-36.2-34.7h-1.4L95.2,151.5z M177.2,140.9c-6.8,1.4-11.6,3.9-15.4,7.2c-3.9,3.9-6.8,9.2-8.2,15.9l-1,3.9
			l2.9-2.4c2.4-1.9,5.3-3.4,8.2-4.8c6.3-3.4,13-6.8,14.5-18.3l0.5-1.9L177.2,140.9z M128.9,136.1c0.5,9.2,5.8,14.5,11.1,19.8
			c2.4,1.9,4.3,4.3,6.3,6.8l2.4,3.4v-3.9c0-5.8-2.4-12.5-6.8-17.8c-2.9-3.9-7.2-7.2-11.6-8.7l-1.9-1L128.9,136.1z M152.1,119.2
			c-0.5,2.9-1.4,5.8-1.9,8.2c-2.9,11.1-2.4,14.9,1,25.1l1,2.9l1.4-2.9c1-1.4,1.4-2.9,2.4-4.3c2.9-5.3,5.8-9.6,4.3-18.3
			c-0.5-4.8-2.9-8.7-6.3-12.1l-1.9-1.9L152.1,119.2z M126.5,242.7c-1.4,0-2.9-1.4-2.9-2.9s1.4-2.9,2.9-2.9s2.9,1.4,2.9,2.9
			S128,242.7,126.5,242.7z M114.9,242.7c-1.4,0-2.9-1.4-2.9-2.9s1.4-2.9,2.9-2.9c1.4,0,2.9,1.4,2.9,2.9S116.4,242.7,114.9,242.7z
			 M103.9,242.7c-1,0-1.9-1-1.9-1.9s1-1.9,1.9-1.9c1,0,1.9,1,1.9,1.9C105.8,241.7,105.3,242.7,103.9,242.7z"/>
		<path fill="#232020" d="M145.3,103.8v-8.2h-2.4c-4.3,0-8.2-1.4-11.1-4.3c-2.4-2.4-3.9-5.3-4.3-8.2h5.8c1,4.3,4.8,7.2,9.6,7.2h2.4
			V71.5h-2.4c-8.2-0.5-14.5-6.8-14.5-14.9c0-7.7,6.3-14.5,14.5-14.9h2.4v-8.2h5.3v8.2h2.4c7.2,0.5,13,5.8,14,12.5h-5.8
			c-1-3.9-4.3-6.8-8.2-7.2l-2.4-0.5v18.8h2.4c8.7,0,15.4,6.3,15.4,14.9s-6.8,14.9-15.4,14.9h-2.4v8.7H145.3z M150.6,90.3h2.4
			c5.8,0,10.1-3.9,10.1-9.2c0-5.3-4.3-9.2-10.1-9.2h-2.4V90.3z M142.4,47.4c-4.8,0.5-8.2,4.3-8.2,9.2s3.9,8.7,8.2,9.2l2.4,0.5V46.9
			L142.4,47.4z"/>
		<path fill="#232020" d="M114,128.4l-3.4-5.3l-1.4,1c-2.4,1.4-5.8,2.4-8.7,1.4c-2.4-0.5-4.3-1.9-5.8-3.4l3.4-2.4
			c2.4,2.4,5.8,2.4,8.7,0.5l1.4-1l-7.2-11.6l-1,1c-5.3,2.9-11.6,1.4-14.9-3.9c-2.9-4.8-1.4-11.6,3.4-14.9l1.4-1l-3.4-5.3l3.4-1.9
			l3.4,5.3l1.4-1c4.8-2.4,10.6-1.4,14,2.4l-3.4,2.4c-1.9-1.9-5.3-2.4-7.7-1.4l-1.9,1l7.2,12.1l1.4-1c5.8-3.4,12.1-1.9,15.4,3.4
			c3.4,5.3,1.4,12.1-3.9,15.4l-1.4,1l3.4,5.3L114,128.4z M112.1,117.3l1.4-1c3.9-2.4,4.8-6.3,2.4-9.6c-2.4-3.4-6.3-4.3-10.1-1.9
			l-1.4,1L112.1,117.3z M90.4,93.7c-2.9,1.9-3.4,6.3-1.9,9.2c1.9,2.9,5.8,4.3,9.2,2.4l1.9-1l-7.2-12.1L90.4,93.7z"/>
		<path fill="#232020" d="M76.8,170.8l-5.3-2.4l-0.5,1.4c-1.4,2.9-3.4,4.8-6.3,5.8c-1.9,1-4.3,1-6.8,0.5l1.4-3.9
			c2.9,0.5,6.3-1,7.7-4.3l0.5-1.4l-12.1-5.8l-1,1.4c-2.4,5.3-8.7,7.2-14,4.8s-7.7-8.7-5.3-14l0.5-1l-5.3-2.4l1.4-3.4l5.3,2.4
			l0.5-1.4c2.4-4.8,7.7-6.8,12.5-5.3l-1.4,3.9c-2.9-0.5-5.8,1-7.2,3.4l-1,1.4l12.5,5.8l0.5-1.4c2.4-5.8,8.7-8.2,14.5-5.8
			c5.8,2.4,7.7,8.7,5.3,14.5L73,165l5.3,2.4L76.8,170.8z M69.6,163.1l0.5-1.4c1.9-3.9,0.5-7.7-3.4-9.2s-7.2-0.5-8.7,3.4l-0.5,1.4
			L69.6,163.1z M38.8,155.4c-1,3.4,0.5,6.8,3.4,8.2s6.8,0,8.7-2.9l1-1.4l-12.5-5.8L38.8,155.4z"/>
	</g>
</g>
</svg>
