<?xml version="1.0" encoding="utf-8"?>
<!-- Generator: Adobe Illustrator 22.0.1, SVG Export Plug-In . SVG Version: 6.00 Build 0)  -->
<svg version="1.1" id="Layer_1" xmlns="http://www.w3.org/2000/svg" xmlns:xlink="http://www.w3.org/1999/xlink" x="0px" y="0px"
	 viewBox="0 0 256 256" enable-background="new 0 0 256 256" xml:space="preserve">
<g id="protection">
	<g>
		<path fill="#232020" d="M139.1,232.1L129,204.6H98.5l-19.8,28c-0.5,1-1.4,1.4-2.4,1.4c-0.5,0-1,0-1.4-0.5c-1.4-1-1.4-2.9-0.5-3.9
			L153,117.8c0.5-1,1.4-1.4,2.4-1.4H209c1,0,1.4,0.5,1.9,1s1,1.4,1,1.9c-1.4,28-11.1,48.7-29.9,61.7l-0.5,0.5l17.8,48.7
			c0.5,1.4,0,3.4-1.9,3.9c-0.5,0-0.5,0-1,0c-1.4,0-2.4-1-2.9-1.9l-17.4-47.7l-0.5,0.5c-9.6,5.8-21.2,9.2-34.7,11.1l-1.9-5.8
			c28.5-3.4,62.7-17.4,66.5-67.5v-0.5h-46.8v0.5c2.4,8.7,5.3,25.1-4.3,39.1c-4.3,6.8-11.1,12.1-20.3,15.4l-1.9-5.3
			c7.7-3.4,13.5-7.7,17.4-13.5c7.2-11.1,5.8-24.6,4.3-31.8l-0.5-1.4l-31.3,44.4l21.7,59.8c0.5,1,0,1.4,0,2.4c-0.5,0.5-1,1.4-1.4,1.4
			c-0.5,0-0.5,0-1,0C140.5,234,139.5,233,139.1,232.1z M118.8,176.1l-15.9,22.7H127L118.8,176.1z M88.9,193c-2.9-0.5-4.3-1-4.3-1
			c-1.4-0.5-1.9-1.4-1.9-2.9v-8.2c0-1,0.5-1.4,1-1.9s1.4-1,1.9-1l0,0c2.9,0,6.3,0,9.2,0c1.4,0,3.4,0,4.8,0l-4.3,5.8
			c-1.9,0-4.3,0-6.3,0h-0.5v2.9H89c1,0,2.4,0.5,3.9,1L88.9,193z"/>
		<g>
			<path fill="#232020" d="M103.4,169.4V83.5H84.1V84c-0.5,1.9-1.9,2.9-3.4,2.9c-1,0-1.4-0.5-1.9-1s-0.5-1-0.5-1.4v-1H46.9L46.5,84
				c-0.5,0.5-1,1-1.4,1.9c-0.5,0.5-1.4,1-2.4,1l0,0c-0.5,0-1,0-1.4-0.5c-0.5-0.5-1-1-1.4-1.4c0-0.5,0-1,0.5-1.4
				c14-17.8,36.2-30.9,62.7-37.1h1v-2.9c0-1.4,1.4-2.4,2.9-2.4s2.9,1,2.9,2.4V47h1c26.5,5.8,48.7,18.8,62.7,37.1
				c0.5,0.5,0.5,1,0.5,1.4c0,0.5-0.5,1-1.4,1.4c-0.5,0.5-1,0.5-1.4,0.5c-1,0-1.9-0.5-2.4-1s-1-1.4-1.4-1.9l-1.4-1h-30.9v1
				c0,0.5,0,1.4-0.5,1.4c-0.5,0.5-1.4,1-1.9,1c-1.4,0-2.9-1-3.4-2.9v-0.5h-19.3v86.3h-6.3v-0.4H103.4z M94.2,53.6l-3.4,1
				c-14.9,5.3-28.5,13-38.6,22.7l-1.4,1.4h28.5v-0.5C82.7,69,86.5,61.8,91.8,56L94.2,53.6z M106.3,50.7L106.3,50.7
				C95.2,57,88.9,70.5,86,77.7l-0.5,1.4H127l-0.5-1.4C123.6,70.5,117.4,57,106.3,50.7L106.3,50.7z M118.3,53.6l1.9,2.4
				c4.8,5.8,9.2,13.5,12.5,22.2v0.5h28.5l-1.4-1.4c-10.1-9.6-23.1-17.4-38.6-22.7L118.3,53.6z"/>
		</g>
	</g>
</g>
</svg>
