<?xml version="1.0" encoding="utf-8"?>
<!-- Generator: Adobe Illustrator 22.0.1, SVG Export Plug-In . SVG Version: 6.00 Build 0)  -->
<svg version="1.1" id="Layer_1" xmlns="http://www.w3.org/2000/svg" xmlns:xlink="http://www.w3.org/1999/xlink" x="0px" y="0px"
	 viewBox="0 0 256 256" enable-background="new 0 0 256 256" xml:space="preserve">
<g id="home">
	<g>
		<rect x="174.7" y="110.1" width="8.2" height="8.2"/>
		<rect x="174.7" y="131.8" width="8.2" height="8.2"/>
		<rect x="174.7" y="153.9" width="8.2" height="8.2"/>
		<rect x="174.7" y="175.6" width="8.2" height="8.2"/>
		<rect x="92.8" y="131.8" width="7.2" height="7.2"/>
		<rect x="71.1" y="131.8" width="7.2" height="7.2"/>
		<rect x="92.8" y="155.4" width="7.2" height="7.2"/>
		<rect x="71.1" y="155.4" width="7.2" height="7.2"/>
		<rect x="92.8" y="179.5" width="7.2" height="7.2"/>
		<rect x="71.1" y="179.5" width="7.2" height="7.2"/>
		<path d="M35.4,231.6v-6.3h12.1V117.8c0-5.3,4.3-9.6,9.6-9.6h45.3V55.6c0-2.9,2.4-5.3,5.3-5.3h68c2.9,0,5.3,2.4,5.3,5.3V84h15.9
			c5.8,0,10.1,4.3,10.1,10.1v131.7h14v6.3H35.4V231.6z M187.8,225.8h13.5V94.1c0-1.9-1.9-3.9-3.9-3.9h-47.7c-1.9,0-3.9,1.9-3.9,3.9
			v131.7h14v-28.9h28C187.8,196.9,187.8,225.8,187.8,225.8z M165.6,225.8h15.9v-22.7h-15.9V225.8z M108.7,108.1h5.8
			c5.3,0,9.6,4.3,9.6,9.6v108h15.4V94.1c0-5.8,4.3-10.1,10.1-10.1h25.6V57h-66.5L108.7,108.1L108.7,108.1z M57.1,114.4
			c-1.9,0-3.4,1.4-3.4,3.4v108h64.1v-108c0-1.9-1.4-3.4-3.4-3.4C114.5,114.4,57.1,114.4,57.1,114.4z"/>
	</g>
</g>
</svg>
