<?xml version="1.0" encoding="utf-8"?>
<!-- Generator: Adobe Illustrator 22.0.1, SVG Export Plug-In . SVG Version: 6.00 Build 0)  -->
<svg version="1.1" id="Layer_1" xmlns="http://www.w3.org/2000/svg" xmlns:xlink="http://www.w3.org/1999/xlink" x="0px" y="0px"
	 viewBox="0 0 256 256" enable-background="new 0 0 256 256" xml:space="preserve">
<g id="wealth">
	<g>
		<path fill="#232020" d="M201.3,242.7c-1,0-1.9-1-1.9-1.9s1-1.9,1.9-1.9s1.9,1,1.9,1.9S202.2,242.7,201.3,242.7z M187.3,242.7
			c-1,0-1.9-1-1.9-1.9s1-1.9,1.9-1.9s1.9,1,1.9,1.9S188.2,242.7,187.3,242.7z M177.6,242.7c-1.4,0-2.9-1.4-2.9-2.9s1.4-2.9,2.9-2.9
			c1.4,0,2.9,1.4,2.9,2.9S179.1,242.7,177.6,242.7z M138.1,242.7c-1.9,0-2.9-1.4-2.9-2.9s1-2.9,2.9-2.9h9.6v-21.2
			c-1.4-6.8-4.8-12.5-10.1-17.8l-0.5-0.5l-1,0.5c-5.8,1.9-10.6,2.9-15.4,2.9c-9.6,0-17.4-3.4-22.7-10.1
			c-8.2-10.1-11.1-26.5-7.2-45.3c31.3,2.4,46.3,17.4,49.2,49.7v0.5l0.5,0.5c1.9,1.9,3.9,4.3,5.8,6.3l2.4,3.4v-30.4
			c0-5.8-4.3-9.6-8.2-13.5c-0.5-0.5-1.4-1.4-1.9-1.9c-10.6-10.1-13-14.9-11.6-28.9c6.3,1.4,10.6,2.9,16.4,8.7l2.4,1.9v-2.9
			c0-3.9,1-7.2,1.9-10.6c1.9-6.8,2.4-11.6,2.4-16.4c8.2,5.3,14,9.6,15.4,20.3c0.5,2.9,0.5,5.8-0.5,9.2l-0.5,2.9l2.4-1.4
			c5.3-2.9,11.6-3.9,16.4-4.3c-0.5,14.9-2.4,20.3-16.9,27.5l-1,0.5c-4.3,2.4-11.1,5.8-11.1,12.5v21.2l2.4-2.9
			c2.4-2.4,4.8-4.8,7.7-7.2l0.5-0.5v-0.5c1.4-17.8,14-24.1,25.1-24.1s22.7,5.8,30.9,15.9c-8.2,11.1-21.2,22.7-35.2,22.7
			c-6.8,0-13.5-2.9-18.8-9.2l-1-1l-1,1c-4.8,3.9-8.7,8.2-11.1,13.5l0,0v0.5v30.9h9.6c1.9,0,2.9,1.4,2.9,2.9s-1,2.9-2.9,2.9h-25.6
			v-2.4H138.1z M196.9,178.1c1.4,0,1.9,1,1.9,1.9s-0.5,1.9-1.9,1.9c-4.8,0-14,1-23.6,5.3l-1.9,1l1.4,1.4c3.9,3.9,8.7,5.3,14,5.3
			c10.6,0,20.3-7.7,26-14.9l1-1l-1-1c-5.8-5.8-14-9.2-21.7-9.2c-9.2,0-16.4,4.8-18.8,12.5l-1.9,2.4l2.9-1.4
			C182.9,178.5,192.1,178.1,196.9,178.1L196.9,178.1z M95.2,151.5c-1.9,13.5,1,26,7.2,33.8c4.8,5.3,11.1,8.2,18.8,8.2
			c2.4,0,4.8-0.5,7.7-1l2.9-0.5l-1.9-1.4c-1.4-1.4-3.4-2.4-5.3-3.9c-7.7-5.8-15.9-11.6-20.3-19.3c-0.5-0.5-0.5-1,0-1.9
			c0.5-0.5,1-1,1.9-1c0.5,0,1,0.5,1.4,1c4.3,6.8,12.5,13,19.3,18.3c1.4,1,2.4,1.9,3.9,2.9l2.9,1.9l-0.5-3.4
			c-3.4-20.3-15.9-32.3-36.2-34.7h-1.4L95.2,151.5z M177.2,140.9c-6.8,1.4-11.6,3.9-15.4,7.2c-3.9,3.9-6.8,9.2-8.2,15.9l-1,3.9
			l2.9-2.4c2.4-1.9,5.3-3.4,8.2-4.8c6.3-3.4,13-6.8,14.5-18.3l0.5-1.9L177.2,140.9z M128.9,136.1c0.5,9.2,5.8,14.5,11.1,19.8
			c2.4,1.9,4.3,4.3,6.3,6.8l2.4,3.4v-3.9c0-5.8-2.4-12.5-6.8-17.8c-2.9-3.9-7.2-7.2-11.6-8.7l-1.9-1L128.9,136.1z M152.1,119.2
			c-0.5,2.9-1.4,5.8-1.9,8.2c-2.9,11.1-2.4,14.9,1,25.1l1,2.9l1.4-2.9c1-1.4,1.4-2.9,2.4-4.3c2.9-5.3,5.8-9.6,4.3-18.3
			c-0.5-4.8-2.9-8.7-6.3-12.1l-1.9-1.9V119.2z M126.5,242.7c-1.4,0-2.9-1.4-2.9-2.9s1.4-2.9,2.9-2.9s2.9,1.4,2.9,2.9
			S128,242.7,126.5,242.7z M114.9,242.7c-1.4,0-2.9-1.4-2.9-2.9s1.4-2.9,2.9-2.9c1.4,0,2.9,1.4,2.9,2.9S116.4,242.7,114.9,242.7z
			 M103.9,242.7c-1,0-1.9-1-1.9-1.9s1-1.9,1.9-1.9c1,0,1.9,1,1.9,1.9S105.3,242.7,103.9,242.7z"/>
		<path fill="#232020" d="M145.3,103.8v-8.2h-2.4c-4.3,0-8.2-1.4-11.1-4.3c-2.4-2.4-3.9-5.3-4.3-8.2h5.8c1,4.3,4.8,7.2,9.6,7.2h2.4
			V71.5h-2.4c-8.2-0.5-14.5-6.8-14.5-14.9c0-7.7,6.3-14.5,14.5-14.9h2.4v-8.2h5.3v8.2h2.4c7.2,0.5,13,5.8,14,12.5h-5.8
			c-1-3.9-4.3-6.8-8.2-7.2l-2.4-0.5v18.8h2.4c8.7,0,15.4,6.3,15.4,14.9s-6.8,14.9-15.4,14.9h-2.4v8.7
			C150.6,103.8,145.3,103.8,145.3,103.8z M150.6,90.3h2.4c5.8,0,10.1-3.9,10.1-9.2c0-5.3-4.3-9.2-10.1-9.2h-2.4V90.3z M142.4,47.4
			c-4.8,0.5-8.2,4.3-8.2,9.2s3.9,8.7,8.2,9.2l2.4,0.5V46.9L142.4,47.4z"/>
		<path fill="#232020" d="M114,128.4l-3.4-5.3l-1.4,1c-2.4,1.4-5.8,2.4-8.7,1.4c-2.4-0.5-4.3-1.9-5.8-3.4l3.4-2.4
			c2.4,2.4,5.8,2.4,8.7,0.5l1.4-1l-7.2-11.6l-1,1c-5.3,2.9-11.6,1.4-14.9-3.9c-2.9-4.8-1.4-11.6,3.4-14.9l1.4-1l-3.4-5.3l3.4-1.9
			l3.4,5.3l1.4-1c4.8-2.4,10.6-1.4,14,2.4l-3.4,2.4c-1.9-1.9-5.3-2.4-7.7-1.4l-1.9,1l7.2,12.1l1.4-1c5.8-3.4,12.1-1.9,15.4,3.4
			c3.4,5.3,1.4,12.1-3.9,15.4l-1.4,1l3.4,5.3L114,128.4z M112.1,117.3l1.4-1c3.9-2.4,4.8-6.3,2.4-9.6c-2.4-3.4-6.3-4.3-10.1-1.9
			l-1.4,1L112.1,117.3z M90.4,93.7c-2.9,1.9-3.4,6.3-1.9,9.2c1.9,2.9,5.8,4.3,9.2,2.4l1.9-1l-7.2-12.1L90.4,93.7z"/>
		<path fill="#232020" d="M76.8,170.8l-5.3-2.4l-0.5,1.4c-1.4,2.9-3.4,4.8-6.3,5.8c-1.9,1-4.3,1-6.8,0.5l1.4-3.9
			c2.9,0.5,6.3-1,7.7-4.3l0.5-1.4l-12.1-5.8l-1,1.4c-2.4,5.3-8.7,7.2-14,4.8s-7.7-8.7-5.3-14l0.5-1l-5.3-2.4l1.4-3.4l5.3,2.4
			l0.5-1.4c2.4-4.8,7.7-6.8,12.5-5.3l-1.4,3.9c-2.9-0.5-5.8,1-7.2,3.4l-1,1.4l12.5,5.8l0.5-1.4c2.4-5.8,8.7-8.2,14.5-5.8
			s7.7,8.7,5.3,14.5L73,165l5.3,2.4L76.8,170.8z M69.6,163.1l0.5-1.4c1.9-3.9,0.5-7.7-3.4-9.2s-7.2-0.5-8.7,3.4l-0.5,1.4L69.6,163.1
			z M38.8,155.4c-1,3.4,0.5,6.8,3.4,8.2s6.8,0,8.7-2.9l1-1.4l-12.5-5.8L38.8,155.4z"/>
	</g>
</g>
</svg>
