<?xml version="1.0" encoding="utf-8"?>
<!-- Generator: Adobe Illustrator 22.0.1, SVG Export Plug-In . SVG Version: 6.00 Build 0)  -->
<svg version="1.1" id="Layer_1" xmlns="http://www.w3.org/2000/svg" xmlns:xlink="http://www.w3.org/1999/xlink" x="0px" y="0px"
	 viewBox="0 0 256 256" enable-background="new 0 0 256 256" xml:space="preserve">
<g id="living_well">
	<g>
		<path d="M191.2,76.5c12.1,2.4,23.7,8.7,31.5,18.4c1.9,2.4,5.8-1,3.9-3.4c-8.7-10.2-21.3-17.4-34.4-19.9c-1.5-0.5-2.9,0.5-2.9,1.9
			C188.8,75,189.8,76.5,191.2,76.5z"/>
		<path d="M228.5,102.6c3.9,0,3.9-5.8,0-5.8C224.6,96.8,224.6,102.6,228.5,102.6z"/>
		<path d="M231,143.3v-12.6c0-27.6-22.8-50.4-50.4-50.4h-1.5c0-0.5,0-1,0-1.9c8.2-9.2,0-26.7-11.6-23.3l0,0
			c-9.2-4.8-22.3-1.5-28.1,7.8c-5.8,8.7-3.9,25.2,6.3,35.4c-5.8,18.9-20.4,33.9-39.7,39.3c-1,0.5-1.9,0.5-2.4,1c-0.5,0-0.5,0.5-1,1
			l0,0l0,0L84.2,158l0,0c-0.5,0.5-0.5,0.5-1,1c-4.4,2.4-9.2,2.4-13.6,0l0,0l-0.5-0.5l0,0h-0.5H32.2c-4.4,0-7.8,3.4-7.8,7.8
			s3.4,7.8,7.8,7.8h25.2l0,0l0,0c1.5,0,2.4,1,2.4,2.4c0,0.5,0,16,0,17v28.6c-2.4,2.4-2.9,5.3-2.4,7.8H57v4.8c9.7,0,17.9,0,29.1,0
			c0,0-1,0,5.8,0v-10.2c-0.5-1-1-1.9-1.9-2.9V193v-0.5c0-13.6-1-18.4,3.9-23.7l11.6-11.6c1.9,0.5,3.4,0.5,5.3,0s7.8-2.9,8.7-2.9
			c13.1-5.3,24.7-14.5,33-26.2c0,14.5,0,82.9,0,91.6c0,1-1,1.9-1.9,1.9h-2.9c-4.8,0-8.7,3.4-9.7,7.8h-0.5v4.8c17.4,0,40.2,0,70.8,0
			v-13.1l0,0c0-17.9,0-61.6,0-102.3c1.9,3.9,2.4,8.2,2.4,12.1v17.4c0,2.4,1,4.8,2.4,6.8V221v8.2v4.8c1.5,0,3.4,0,4.8,0v-20.8l0,0
			v-54.8c6.3,1.5,12.1-2.9,12.6-9.2c1.5,1.5,2.4,3.4,2.4,5.8c0,1.5,1,2.4,2.4,2.4s2.4-1,2.4-2.4C238.7,150.1,235.8,145.3,231,143.3z
			 M55,169H32.2c-1.5,0-2.4-1-2.4-2.4s1-2.4,2.4-2.4H55C55,164.2,55,169,55,169z M86.5,229.1H63.3c-0.5,0-1-0.5-1-1.5v-0.5
			c0-1.5,1.5-2.9,2.9-2.9h7.3c0,3.4,4.8,3.4,4.8,0h6.8c1.5,0,2.9,1.5,2.9,2.9C87.5,228.2,87.5,229.1,86.5,229.1z M72.5,206.8v12.6
			c-0.5,0-6.8,0-7.8,0v-24.7h20.4v24.7c-0.5,0-6.8,0-7.3,0v-12.6C77.3,203.4,72.5,203.4,72.5,206.8z M85.1,189.9H64.7v-0.5v-13.1
			c0-3.4-1.9-5.8-4.8-6.8v-5.3h6.3c5.8,2.9,12.6,2.9,18.4-0.5l3.9,3.9C84.1,173.4,85.1,179.2,85.1,189.9z M92.3,163.2l-3.4-3.4
			l9.7-9.7l0,0c0.5,1.9,1.5,3.4,2.4,4.4L92.3,163.2z M169.9,61.4c0.5-0.5,1-1,1-1.5c3.4,0.5,5.8,3.9,6.3,8.2
			c-3.4-1.9-7.8-1-10.2,3.9c-0.5-1-1-1.9-1.5-2.9C167.5,67.2,169.4,64.3,169.9,61.4z M143.2,65.3c4.4-6.8,15-9.7,21.8-5.8
			c0.5,2.4-2.4,5.3-3.4,6.3c-1.9,1.9-0.5,8.7,5.8,12.6c1.5,1,3.4,0,3.9-1.9c0.5-4.8,2.9-5.3,3.9-3.9c0.5,1,0.5,2.4-0.5,3.9
			c0,0,0,0,0,0.5s0,0.5,0,1c0,1.5,0.5,3.9,0,6.8c-1.9,12.1-13.1,20.4-23.3,12.1C140.3,87.6,138.9,72.6,143.2,65.3z M109.3,152.1
			c-1.5,0.5-2.4,0-3.4-0.5c-1.5-0.5-2.4-1.9-2.9-3.4c0-0.5,0,0,0-0.5s0,0,0-0.5c0-1,0.5-1.9,1-2.9c1.9-1.9,1.5-1,7.8-3.4l3.4,9.2
			C113.7,151.1,111.2,151.6,109.3,152.1z M166.5,229.1c1-1.5,2.4-2.4,4.4-2.4h2.9c3.9,0,7.3-3.4,7.3-7.3v-1.9c0,0,0-2.4,0-11.1
			v-40.2c0-3.4-4.8-3.4-4.8,0v48c0,2.9,0,2.4,0,5.3c0,1-1,1.9-1.9,1.9h-2.9c-4.8,0-8.7,3.4-9.7,7.8c-9.2,0-7.8,0-17.4,0
			c1.5-2.9,4.4-2.4,7.3-2.4c3.9,0,7.3-3.4,7.3-7.3c0-7.8,0-0.5,0-65.9h45.6v60.6c0,3.9,0-4.4,0,14.1
			C203.3,229.6,204.8,229.1,166.5,229.1z M226.1,148.7c0,2.9-2.4,4.8-4.8,4.8s-4.8-1.9-4.8-4.8v-2.4h10.2v2.4H226.1z M226.1,140.9
			h-10.2c0-11.1,0-11.1,0-13.1c-1-11.6-7.3-18.4-8.2-19.4c-2.4-2.9-5.3-5.3-8.2-7.3c-1-1-2.9-0.5-3.4,1c-1,1-0.5,2.9,1,3.4
			c2.4,1.5,4.4,3.4,6.3,5.3v37.8h-45.6v-29.1c0-0.5,0-0.5,0-0.5c0-0.5,0-0.5-0.5-1c0-0.5-0.5-0.5-0.5-0.5c-0.5,0-0.5-0.5-1-0.5h-0.5
			c-0.5,0-0.5,0-1,0s-0.5,0.5-1,0.5c-1.9,1.9-10.2,19.9-33.4,30.5l-3.4-9.2c15.5-7.3,27.6-20.8,33-37.3c12.1,7.8,26.2-1,29.1-16
			c29.1,0,47.5,21.8,47.5,45.6L226.1,140.9L226.1,140.9z"/>
		<path d="M85.6,150.6c1.5-3.4,1.9-7.3,1-11.1c-1-3.4-1.9-7.8-4.4-10.2c-2.9-3.4-7.3-4.4-13.1-2.9c-13.1,3.4-10.2,13.6-8.2,20.4
			C63.7,159.8,79.7,162.2,85.6,150.6z M70,131.2c7.8-1.9,9.2,1.9,11.1,9.7c1,2.9,0.5,5.3-0.5,7.8c-1.9,4.4-6.8,5.8-11.1,2.9
			c-1.9-1.5-3.9-3.9-4.4-6.3C63.3,137.5,62.3,133.2,70,131.2z"/>
	</g>
</g>
</svg>
