<?xml version="1.0" encoding="utf-8"?>
<!-- Generator: Adobe Illustrator 22.0.1, SVG Export Plug-In . SVG Version: 6.00 Build 0)  -->
<svg version="1.1" id="Layer_1" xmlns="http://www.w3.org/2000/svg" xmlns:xlink="http://www.w3.org/1999/xlink" x="0px" y="0px"
	 viewBox="0 0 256 256" enable-background="new 0 0 256 256" xml:space="preserve">
<g id="having_kids">
	<path d="M70.6,92.2c14,0,22.7-17.4,15.4-30.9c2.9-4.3,3.4-10.6,1-16.9c-0.5-1.4-2-1.9-2.9-1.4c-12.5,6.3-17.8,0-25.6,3.4
		c-7.2,3.4-9.2,11.1-9.2,11.1c-1.9,7.7,1.9,13.5,3.4,15.4C53.2,84,60.9,92.2,70.6,92.2z M70.6,87.4c-12.5,0-17.4-18.8-10.1-27
		c6.8,6.8,15.9,7.2,21.7,3.9C87,74.8,80.7,87.4,70.6,87.4z M60.5,50.7c1.9-1,3.9-1,6.3-0.5c5.3,0.5,10.6,0.5,16.9-1.9
		c4.3,14.9-12.5,17.4-21.2,7.2c-0.5-0.5-1-1-1.4-1c-2.4,0-6.3,5.3-7.2,9.2C52.7,58,56.1,52.7,60.5,50.7z M150.1,79.2
		c4.8-4.3,5.3-8.7,5.8-12.5c1.9-15.4,9.6-25.6,25.1-23.1c14.9-1.9,23.1,7.7,25.1,23.1c0.5,3.9,1,8.7,5.8,12.5
		c2.4,1.9-1,7.7-2.9,10.1c-2.4,2.9-6.3,4.3-7.2,4.3c-2.4,0-3.4-3.4-1-4.3c3.4-1.4,5.8-4.3,6.8-7.7c-5.3-4.8-5.8-10.1-6.8-14.5
		c-1-6.3-2.9-13.5-7.7-16.9c-5.3-3.9-12.1-2.4-13-2.4c-2.9-0.5-8.2-0.5-12.5,2.4c-2.4,1.9-3.9,3.9-4.8,6.3c-4.8,9.6-1,16.9-9.6,25.6
		c1,3.4,3.4,6.3,6.8,7.7c2.9,1,1.4,5.3-1.4,4.3c-1.9-0.5-4.3-1.9-6.3-4.3C151.1,87.4,148.2,81.1,150.1,79.2z M183.4,53.1
		c-4.3,6.8-10.6,12.1-18.3,15.4c-2.4,1-1.4,4.3,1,4.3l0,0c2.9,21.7,26,22.2,29.9,1c3.4,1.4,4.8-2.9,1.9-3.9
		c-5.3-2.4-10.1-5.8-14-10.6c1-1,1.9-2.4,2.4-3.4C188.7,53.1,184.9,50.7,183.4,53.1z M192.1,72c-1,7.7-5.8,13.5-10.6,13.5
		c-5.3,0-9.6-5.8-10.6-13c0-0.5,0-0.5-0.5-1c3.9-2.4,7.7-4.8,11.1-8.2C184.4,66.7,187.8,69.5,192.1,72z M214.3,172.3
		c-1.4-8.2-3.4-16.4-6.8-24.1V113c0-8.7-4.8-16.9-12.5-21.2c-1.4-1.4-4.3,0-3.9,2.4c-2.9,11.6-16.9,10.1-18.8,0
		c0.5-2.4-2.4-3.4-3.9-1.9c-7.7,3.9-12.5,11.1-12.5,18.8c0,1,0,1.9,0,2.4c-11.1-6.3-22.7,1.9-22.7,12.5
		c-9.6,4.8-10.1,11.1-10.1,15.4c0,2.4-0.5,2.9-1,3.4c-1.4,0.5-1.9,2.4-1,3.4c-1,0-3.4-0.5-4.3,0c0,0-1,0.5-1.4,1
		c-7.2,3.9-12.5-0.5-14-1v-2.9c8.2,7.2,20.7,1,20.7-12.5c2.9-12.5,0-21.2-1.4-22.7c0,0-0.5,0-0.5-0.5c-1-0.5-2.9-0.5-4.3,1.4
		c-1.9-1.9-4.8-2.4-6.8,0c-1.9-2.4-4.8-2.4-6.8,0c-0.5-0.5-0.5-0.5-1-1C101,95.6,85,88.8,82.6,90.8c-7.2,5.8-16.9,5.8-24.1,0
		c-2.9-1.9-19.3,4.8-19.3,19.8c0,0.5,0,45.8,0,46.3c0,7.2,1.9,5.8,10.6,5.8v55c-1.4,1.4-2.4,3.4-2.4,5.8v2.9c0,3.4,2.4,5.8,5.8,5.8
		h34.7c2.9,0,4.8-1.9,5.8-4.3c0.5,2.4,2.9,4.3,5.8,4.3h20.3c5.8,0,7.7-7.7,3.4-11.6v-19.8c1.9,1.9,7.2,4.3,14,5.8
		c0.5,2.9,1,8.2,1.4,13.5c-5.3,3.9-4.8,12.1,1,12.1h17.8c2.9,0,4.8-2.4,4.8-4.8c0-2.9-1.4-5.3-3.9-7.2c0.5-5.3,1-10.6,1.4-13.5
		c2.9-0.5,5.3-1.4,7.7-2.4l1,14.5c-7.7,2.4-8.2,13-1.4,13h29c2.9,0,4.8-2.4,4.8-4.8c0-3.9-2.4-7.2-5.8-8.2l2.4-37.6
		c5.8-1.4,11.1-3.9,15.9-6.8C213.8,174.2,214.3,173.2,214.3,172.3z M202.7,138.5c-1.9-3.4-3.9-6.8-6.3-10.1
		c-1.4-15.9,6.3-16.4,2.4-27.5C203.7,107.6,202.7,111.5,202.7,138.5z M163.7,100.4c-4.8,12.1,2.9,12.1,1.9,27.5
		c-1-0.5-1.9-1-2.9-1.9c0-3.4-1-6.8-3.4-9.2C160.8,113.4,158.3,106.7,163.7,100.4z M148.2,142.8c-7.2,0-11.6-12.5-7.7-14.9
		c1.4-1,4.8-1,7.7-2.9c3.9,2.9,9.2,1,9.2,5.8C157.4,136.1,153.5,142.8,148.2,142.8z M161.7,131.3v-0.5c7.2,4.3,6.3,9.2,6.8,13.5
		C165.1,143.8,161.7,141.4,161.7,131.3z M148.2,115.4c4.8,0.5,9.2,3.9,10.1,8.2l0,0c-2.9-1.9-6.8-1-8.2-3.4c-1-1.4-2.9-1.4-3.9,0
		c-1.4,2.4-5.3,1.9-8.2,3.4C139.1,119.2,142.9,115.8,148.2,115.4z M134.2,130.8v0.5c0,10.1-3.4,12.1-7.2,12.5
		C128,140,126.5,135.1,134.2,130.8z M118.3,152.5c4.8,0,9.2,4.3,9.2,9.2v6.3h-4.3v-4.3c0-2.9-4.3-2.9-4.3,0c0,13.5,0,10.1,0,23.1
		h-18.3c0-13,0-10.1,0-23.1c0-2.9-4.3-2.9-4.3,0v4.3H92v-6.3c0-4.8,4.3-8.7,9.2-8.7C105.8,155.9,113,155.9,118.3,152.5z
		 M136.2,156.3c-1,5.8-1.9,11.1-3.4,16.4C132.3,167.4,133.3,161.7,136.2,156.3z M125.6,192.5c-1,0.5-1.4,1-2.4,1.4
		c0-7.7,0-14,0-22.2h4.3C127.5,188.7,128.4,190.1,125.6,192.5z M91.3,172.3h4.3c0,7.7,0,14,0,22.2c-2.4-1-4.3-3.4-4.3-6.3V172.3z
		 M109.2,143.8c-4.8,0-8.7-4.8-8.7-10.1c0-7.2,0-10.1,8.7-10.1s8.7,3.4,8.7,10.1C117.8,139,114,143.8,109.2,143.8z M106.3,114.4
		c1.9,2.4,4.8,2.4,6.8,0c1.4,1.9,3.9,1.9,5.8,1c0.5,1.4,1,4.3,1,5.8c-4.3-3.9-15.4-3.9-19.8,0c0-1.4,0.5-4.3,1-5.8
		C101.9,116.3,104.3,116.3,106.3,114.4z M56.6,95.6c8.2,5.8,19.3,6.3,28,0c7.2,1.9,12.5,8.2,12.5,15.4v0.5c-1.4,2.4-1.9,7.2-2.4,9.2
		c-0.5,3.9,0.5,8.2,1.4,12.1c0,1.9,0,3.9,1,5.8c0,0.5,0,9.2,0,9.6c-2.4,0.5-4.3,1.4-5.8,2.9c0-0.5,0,2.9,0-38.1c0-2.9-4.3-2.9-4.3,0
		v34.2H54.7V113c0-2.9-4.3-2.9-4.3,0v34.2h-6.3v-37.1C44.1,103.8,48.9,97.5,56.6,95.6z M44.1,152.5h5.8c0,3.9,0,4.8,0,5.8
		C43.1,158.3,44.1,158.8,44.1,152.5z M54.7,152.5H87c0,45.3,0,31.3,0,63.7c-0.5,0-13,0-14,0V166c0-1.4-1-2.4-2.4-2.4s-2.4,1-2.4,2.4
		v50.2c-0.5,0-13,0-14,0C54.7,202.6,54.7,165.5,54.7,152.5z M87.9,227.7H53.2c-1.4,0-1.4-1.9-1.4-3.9c0-1.4,1.4-2.9,2.9-2.9h13.5
		v1.4c0,2.9,4.3,2.9,4.3,0V221H86c1.4,0,2.9,1.4,2.9,2.9C89.4,225.8,89.4,227.7,87.9,227.7z M93.7,223.4c0-2.4-1-4.3-2.4-5.8v-20.7
		c1.4,1,2.9,1.9,4.3,1.9v21.7C94.7,221.5,94.2,222.4,93.7,223.4z M119.3,227.7H99c-0.5,0-1.4-0.5-1.4-1.4v-0.5
		c0-1.4,1.4-2.9,2.9-2.9h6.3c0,2.9,4.3,2.9,4.3,0h6.3C121.2,222.9,121.7,227.7,119.3,227.7z M111.6,218.6v-20.7c0-2.9-4.3-2.9-4.3,0
		v20.7c-0.5,0-6.3,0-6.8,0c0-0.5,0-20.7,0-21.2s0-5.8,0-6.3h18.3c0,0.5,0,5.8,0,6.3s0,20.7,0,21.2
		C117.8,218.6,112.5,218.6,111.6,218.6z M141.5,207.5c1.4,0,2.9,0.5,4.3,0.5v10.6c-2.4,0-2.4,0-3.4,0
		C142,214.7,142,210.4,141.5,207.5z M156.9,227.7h-17.8c0,0-0.5,0-0.5-0.5c0-2.4,1.9-4.3,4.3-4.3h2.4c0,2.9,4.3,2.9,4.3,0h2.4
		C155.5,222.9,157.4,224.8,156.9,227.7C157.4,227.2,156.9,227.7,156.9,227.7z M150.1,218.6V208c1.4,0,2.9,0,4.3-0.5
		c-0.5,2.9-0.5,6.8-1,11.1C153,218.6,153,218.6,150.1,218.6z M127.5,198.3c0.5-1,1-1.4,1.4-2.4c1.9-1.9,2.9-4.3,3.4-6.8
		c5.3-12.1,8.2-23.6,9.2-36.2c4.3,1.9,9.2,1.9,13.5,0c1.4,14.5,4.8,27.5,11.6,41l0.5,5.8C154.5,205.5,137.1,204.1,127.5,198.3z
		 M183.4,218.6v-35.2c2.9,0,5.8-0.5,8.7-1l-2.4,36.2H183.4z M179.1,218.6h-6.8l-1-16.4c4.3-2.9,2.9-2.9-0.5-9.6l-0.5-10.1
		c2.9,0.5,5.8,1,8.7,1C179.1,183.4,179.1,218.6,179.1,218.6z M163.2,172.7c-1.4-5.8-2.4-11.1-3.4-16.4
		C162.7,161.7,163.7,167.4,163.2,172.7z M196,227.2C196,227.2,196,227.7,196,227.2l-29.4,0.5c0,0-0.5,0-0.5-0.5
		c0-2.4,1.9-4.3,4.3-4.3h8.7c0.5,2.4,3.9,2.4,4.3,0h8.2C194,222.9,196,224.8,196,227.2z M167,177.1c2.9-9.6,0.5-20.3-8.2-29.4
		c-0.5-0.5-1-0.5-1.4-0.5c-0.5,0-1,0-1.4,0.5c-4.8,2.9-10.1,2.9-14.9,0c-0.5,0-0.5-0.5-1-0.5s-0.5,0-1,0c-1.9,0.5-6.3,6.3-7.7,9.6
		c-1.4-3.4-3.9-6.3-7.2-7.7c6.3,0,11.6-1.4,14-7.7c5.3,8.2,15.4,8.2,20.7,0c2.4,6.3,7.2,7.7,13.5,7.7c1,0,2.9,0,3.4-1.9
		c0-1-0.5-1.9-1.4-2.4c-0.5-0.5-0.5-1-1-3.4c-0.5-2.9-0.5-6.8-3.4-10.1c0.5-0.5,0.5-1,0.5-1.4c1-10.6-2.4-17.8-2.4-17.8
		c-1.9-5.3-1.4-6.8,1-12.5c5.8,9.2,18.8,9.2,24.1,0c2.4,6.3,3.4,6.8,1,12.5c-3.4,8.7-2.4,17.4-1.9,18.3
		c7.2,10.1,10.6,19.8,10.6,19.8c2.9,6.8,4.8,14,6.3,21.2C196.4,178.5,182,180.9,167,177.1z"/>
</g>
</svg>
