<?xml version="1.0" encoding="utf-8"?>
<!-- Generator: Adobe Illustrator 22.0.1, SVG Export Plug-In . SVG Version: 6.00 Build 0)  -->
<svg version="1.1" id="Layer_1" xmlns="http://www.w3.org/2000/svg" xmlns:xlink="http://www.w3.org/1999/xlink" x="0px" y="0px"
	 viewBox="0 0 256 256" enable-background="new 0 0 256 256" xml:space="preserve">
<g id="married">
	<g>
		<path fill="#232020" d="M67.2,76.8c-1.4-1.9-5.3-8.2-3.4-15.4c0,0,1.9-7.7,9.2-11.1c3.4-1.4,5.8-1,8.7-1
			c14.9,1.4,18.3-5.8,20.3-1.4c2.4,6.3,2.4,12.5-1,16.9c6.7,13.4-2,30.8-16,30.8C75.9,95.6,68.2,87.4,67.2,76.8z M97.6,67.6
			c-6.3,3.9-15.9,2.4-22.2-3.9c-8.2,9.2-2.4,27.5,10.1,27.5C95.7,91.2,102.4,78.2,97.6,67.6z M68.2,67.6c1.4-4.3,6.3-11.6,9.2-8.7
			c1.9,2.4,4.3,4.3,7.2,5.3c3.4,0.5,6.3-2.4,5.3-5.3c0-1.4,0.5-2.4,1.9-2.4c3.4-0.5,3.4,5.3,1.4,8.7c5.8-1.4,7.2-7.2,5.8-13
			c-10.1,3.9-16.9,1.9-20.3,1.9c-5.3,0-9.2,4.8-10.1,8.7C67.7,64.2,67.7,66.2,68.2,67.6z M137.1,112.5c-1.4-19.8,11.1-49.2,13-52.6
			c6.3-11.1,25.6-11.1,31.3,0c1.9,3.4,14.5,32.8,13,52.6c0,1.4,1,2.4,2.4,2.4c1,0,1.9-1,2.4-1.9c1.4-22.7-13-54.5-13.5-55
			c-7.7-14.5-31.8-14.5-39.5,0c0,0.5-14.9,32.3-13.5,55C132.8,115.8,137.1,115.4,137.1,112.5z M182,71.5c1,0.5,1.4,1.9,1,2.9
			s-1.4,1.4-2.9,1.4c-3.9,20.7-26,20.7-29.4,0c-2.9,1.4-4.8-2.9-1.9-3.9c2.9-1.4,5.8-2.9,8.2-5.3c6.3-5.3,5.8-7.7,8.2-7.7
			s1.9,2.4,8.2,7.7C176.2,68.6,179.1,70,182,71.5z M176.2,73.4c-3.9-2.4-7.2-5.3-10.6-8.7c-3.4,3.9-6.8,6.3-10.6,8.7c0,0,0,0,0,0.5
			c1,7.2,5.3,13,10.6,13S175.2,81.1,176.2,73.4z M189.2,145.3c16.4,23.6,20.7,49.7,14,80.5c0,1-1,1.9-2.4,1.9h-69.9
			c-1,0-1.9-1-2.4-1.9c-8.2-37.1-0.5-66.5,24.6-94c-0.5-3.4-1-6.8-1.9-9.6c-3.9,11.6-10.1,21.2-18.8,29.9c-1.4,1.9-3.9,2.9-5.8,2.9
			c-1.9,0-3.9-1-5.3-1.9c-0.5-0.5-3.4-3.4-3.9-3.9c-3.4-3.9-8.7-11.6-12.1-20.7l-5.3,87.8c1,0.5-1.9-1,7.2,3.9
			c3.9,1.9,2.4,8.2-1.9,8.2c-0.5,0-40,0-39.5,0c-4.3,0-5.8-6.3-1.9-8.2c9.2-4.8,6.3-3.4,7.2-3.9l-5.3-83.9L61.4,152
			c0,0,0-0.5-2.4,11.1c-1,3.9-8.2,0.5-11.1-3.9c-2.4-3.9-2.4-7.2-1.9-11.1c5.3-27.5,5.8-26,9.6-44.8c0.5-3.4,3.4-6.3,6.8-7.2
			c8.7-1.9,9.2-1.9,10.1-1.9c1.4,0.5,2.9,3.4,10.6,4.8c4.3,0.5,10.1-0.5,14.5-3.9c0.5-1,1.9-1,2.4-1l8.7,1.9
			c11.6,2.9,3.4,17.4,17.8,40c20.7-22.7,4.3-37.1,26-44.4c1.9-0.5,3.4,1.4,2.9,2.9c-0.5,1-1,1.4-1.9,1.4
			c-17.4,5.8-1.9,19.8-24.1,43.4c2.4,2.4,2.9,2.9,3.9,4.3c7.2-8.7,12.5-18.3,14.9-28.9c-4.3-11.6,7.2-20.7,17.4-12.5
			c7.7-6.8,18.3-2.4,18.3,8.2c0,1,0.5,1.9,0.5,3.4c0.5,7.2,1,11.6,0,17.4c-0.5,2.4-1,4.3-1.9,6.3c-2.4,5.8-5.3,10.6-10.1,15.9
			c-1,1-1,2.4,0,3.4s2.4,1,3.4,0c6.8-6.8,11.6-15.4,13.5-24.6c1.4-6.8,1-11.6,0.5-18.8c-1-8.2-2.9-14.5-12.1-17.8
			c-2.9-1-1.4-5.3,1.4-4.3c4.8,1.9,8.7,4.3,11.1,8.2c2.9,3.9,3.4,7.7,3.9,13C194,122.1,195.5,132.2,189.2,145.3z M78.3,102.3
			c-1,0-1.4-0.5-2.4-1l1,2.4C77.3,103.8,78.3,102.8,78.3,102.3z M82.6,104.3l1.4,1.4h3l1.4-1.4l-1-1c-1,0-2.4,0-3.4,0L82.6,104.3z
			 M83.1,139l2.4,2.4l2.4-2.4L86,110.5h-0.5L83.1,139z M94.2,103.8l1-2.4c-1,0.5-1.4,0.5-2.4,1L94.2,103.8z M56.6,153.9l-6.3-1.4
			c0,3.4,1.9,6.3,4.8,7.7L56.6,153.9z M87.9,219.5c0,2.9-4.3,2.9-4.3,0c-10.6,0-7.7-1-16.4,3.9h37.1
			C95.7,218.6,98.5,219.5,87.9,219.5z M95.7,214.7l3.9-59.8H72l3.4,59.8c1,0-1.9,0,7.7,0v-46.3c0-2.9,4.3-2.9,4.3,0v46.3
			C97.6,214.7,94.7,214.7,95.7,214.7z M119.3,144.3l4.3-4.3c-5.3-8.2-8.7-16.9-10.6-26.5c-2.4-13.5-1-11.6-12.1-14l-3.9,9.6
			c-0.5,1-1,1.4-1.4,1.4c-1.4,0.5-1.9-1-3.9-2.9l-1.4,1l2.4,30.9c0,0.5,0,1.4-0.5,1.9c-6.8,6.8-5.3,6.8-12.1,0c-1-1-1,0,1.4-32.3
			l-1.4-1.4l-1.9,1.9c-1.4,1.4-3.4,1-4.3-1L70.1,99c-12.5,2.9-8.7,0-14,22.2c-1,4.8-2.4,10.6-5.8,26.5c1,0,0.5,0,6.8,1.4
			c7.7-35.2,6.8-30.4,7.2-33.8c0-0.5,0-0.5,0.5-1l0.5-0.5c0,0,0.5-0.5,1-0.5h0.5h0.5h0.5c0.5,0,0.5,0.5,0.5,0.5l0.5,0.5
			c0,0,0,0.5,0,1l2.4,34.7h28.5l2.4-35.7c0-1.4,1-2.4,2.4-1.9c1.4,0,1.9,1,1.9,2.4C106.7,116.3,108.7,129.8,119.3,144.3z
			 M128.9,145.3l-1.9-1.9l-4.3,4.3c1.9,1.9,2.9,2.9,4.3,2.9C129.4,150.6,130.4,147.2,128.9,145.3z M179.1,132.7
			c1-3.4,1.4-6.3,1-11.1c-1,3.4-1.9,6.8-1.9,10.1C178.6,132.2,179.1,132.7,179.1,132.7z M155.5,119.7c1.4,3.9,1.9,7.7,2.4,11.6
			c4.8,3.4,11.1,2.9,15.9-0.5c0.5-6.3,1.9-10.6,3.9-15.4c1.9-3.9,1.4-4.8,1.4-4.8c0-2.4-1-5.3-2.9-6.3c-2.4-1.4-6.3-0.5-8.7,2.4
			c-1,1-2.9,1-3.9,0c-3.9-4.3-10.6-4.8-11.6,2.4C151.6,112.9,153.5,114.9,155.5,119.7z M198.9,223.4c0.5-2.4,1-4.8,1.4-7.2
			c-3.9-2.9-6.8-3.4-11.1,0.5c-1,1-1.9,1-2.9,0s-3.4-2.9-5.8-2.9c-2.4,0-4.8,1.9-5.8,2.9s-1.9,1-2.9,0s-3.4-2.9-5.8-2.9
			s-4.8,1.9-5.8,2.9s-2.4,1-2.9,0c-1-1-3.4-2.9-5.8-2.9s-4.8,1.9-5.8,2.9s-1.9,1-2.9,0c-4.3-3.9-7.2-3.4-11.1-0.5
			c0.5,2.4,1,4.8,1.4,7.2H198.9z M186.8,150.1c-2.4,3.9-4.8,7.2-8.2,10.6c-4.3,4.3-11.6,1.4-11.6-4.8c0-5.8,5.8-5.8,10.6-17.8
			c-0.5-1-1.4-1.4-1.9-2.4c-5.8,3.4-13,3.9-19.3,0c-20.3,22.7-28.5,46.8-25.6,75.7c4.3-2.4,8.2-2.4,13,1c5.3-3.4,9.6-3.4,14.5,0
			c5.3-3.4,9.6-3.4,14.5,0c5.3-3.4,9.6-3.4,14.5,0c4.8-3.4,8.7-3.4,13-1C203.2,188.2,198.9,168.4,186.8,150.1z"/>
	</g>
</g>
</svg>
