<?xml version="1.0" encoding="utf-8"?>
<!-- Generator: Adobe Illustrator 22.0.1, SVG Export Plug-In . SVG Version: 6.00 Build 0)  -->
<svg version="1.1" id="Layer_1" xmlns="http://www.w3.org/2000/svg" xmlns:xlink="http://www.w3.org/1999/xlink" x="0px" y="0px"
	 viewBox="0 0 501.7 347.7" style="enable-background:new 0 0 501.7 347.7;" xml:space="preserve">
<path d="M156.8,227h-1v3.3h1c1.2,0,2.8,0,2.8-1.7C159.6,227.2,158.3,227,156.8,227z"/>
<polygon points="240.7,227.2 238.8,232.9 242.4,232.9 240.7,227.2 "/>
<path d="M252,175.2c1.9-0.9,3.9-1.1,5.2-1.1v-54.1l-31.6,67.5L252,175.2z"/>
<polygon points="315.5,227.2 313.7,232.9 317.3,232.9 315.6,227.2 "/>
<path d="M250.6,1.3L0,69.4v195.4l254.7,82.4l246.5-82.4V69.4L250.6,1.3z M97.7,233.3v5.5h-3.9v-5.5l-5.4-9.1h4.5l2.9,5.8l2.8-5.8
	h4.5L97.7,233.3z M116.7,239c-4.7,0-7.3-2.9-7.3-7.5c0-4.7,2.5-7.5,7.3-7.5c4.8,0,7.3,2.9,7.3,7.5C124,236.1,121.5,239,116.7,239z
	 M144.1,233.3c0,4-2.6,5.8-6.4,5.8s-6.4-1.8-6.4-5.8v-9h3.9v8.4c0,1.9,0.5,3.5,2.5,3.5s2.5-1.6,2.5-3.5v-8.4h3.9V233.3z
	 M160.1,238.8l-0.8-2.6c-0.8-2.5-1.3-3.1-2.7-3.1h-0.8v5.7h-3.9v-14.5h6.9c2.6,0,4.7,1.2,4.7,3.7c0,1.9-0.9,3.2-2.8,3.7v0
	c1.2,0.3,1.3,1.4,2.1,3.2l1.4,4H160.1z M191.4,199h-11.9l-68.6-60.8c-4.6-4-8.2-8.2-10.8-12.6c0.9,5.3,1.3,10.8,1.3,16.5V199h-16
	v-91.8h13.2l67.3,60c4.2,3.8,7.9,7.9,11,12.6c-1-5.5-1.5-11.2-1.5-17.1v-55.4h16V199z M192.7,227h-5.8v3.2h5.6v2.7h-5.6v5.8H183
	v-14.5h9.7V227z M204.1,238.8h-3.9v-14.5h3.9V238.8z M225.8,238.8H221l-5.1-9.9h0l0.1,9.9h-3.6v-14.5h4.9l4.9,9.9h0l-0.1-9.9h3.5
	V238.8z M244.4,238.8l-1.1-3.1h-5.5l-1.1,3.1h-3.9l5.5-14.5h4.7l5.6,14.5H244.4z M269,238.8h-4.8l-5.1-9.9h0l0.1,9.9h-3.6v-14.5h4.9
	l4.9,9.9h0l-0.1-9.9h3.5V238.8z M285,239c-3.9,0-8.3-2-8.3-7.5c0-5.1,3.5-7.6,8.3-7.6c1.5,0,2.9,0.3,4.3,0.7l-0.3,3.1
	c-1.2-0.7-2.5-1-3.8-1c-2.7,0-4.5,2-4.5,4.7c0,2.9,2,4.6,4.8,4.6c1.3,0,2.6-0.3,3.6-0.7l0.2,3C288.2,238.7,287,239,285,239z
	 M298.7,198.8l-38.9-18.1c-1.5-0.7-3.8-0.7-5.3,0l-38.9,18.1c-1.5,0.7-2.1,0-1.4-1.4l41.7-89.1c0.7-1.5,1.8-1.5,2.5,0l41.7,89.1
	C300.8,198.8,300.2,199.5,298.7,198.8z M300.6,238.8h-3.9v-14.5h3.9V238.8z M319.3,238.8l-1.1-3.1h-5.5l-1.1,3.1h-3.9l5.5-14.5h4.7
	l5.6,14.5H319.3z M340.3,238.8h-9.9v-14.5h3.9v11.7h6V238.8z M372.7,238.4c-2.5,0.6-4.3,0.7-5.6,0.7c-3.9,0-8.3-2-8.3-7.5
	c0-5.5,3.9-7.6,9.2-7.6c1,0,3,0.1,4.4,0.6l-0.3,3.2c-1.2-0.7-2.6-0.9-3.5-0.9c-3.1,0-5.7,1.3-5.7,4.7c0,2.9,2,4.6,4.8,4.6
	c0.5,0,1-0.1,1.4-0.3V233h-2.3v-2.7h6V238.4z M386,233.7h-1.5v5.1h-3.9v-14.5h4.6c4.4,0,6.5,1.5,6.5,4.8
	C391.8,231.9,389.6,233.7,386,233.7z M403,239c-1.4,0-3-0.2-4.3-0.6l0.3-3.2c1,0.5,2.4,1,4,1c1.2,0,2.4-0.3,2.4-1.4
	c0-2.7-6.9-1-6.9-6.3c0-3.5,3.4-4.5,6.3-4.5c1.4,0,2.8,0.2,3.7,0.5l-0.2,3c-1-0.5-2.1-0.7-3.2-0.7c-1,0-2.6,0.1-2.6,1.4
	c0,2.4,6.9,0.8,6.9,6C409.4,238,406.2,239,403,239z M364.5,199h-13.2l-52.8-91.8h18.6l41.1,73.8l39.4-73.8h17.1L364.5,199z"/>
<path d="M116.7,226.9c-2.4,0-3.3,2.1-3.3,4.6c0,2.4,0.9,4.6,3.3,4.6c2.4,0,3.3-2.2,3.3-4.6C120,229,119.1,226.9,116.7,226.9z"/>
<path d="M385.5,227h-1v4h1c1.3,0,2.4-0.5,2.4-2C387.9,227.5,386.8,227,385.5,227z"/>
</svg>
