<svg version="1.1" id="layer1" xmlns="http://www.w3.org/2000/svg" xmlns:xlink="http://www.w3.org/1999/xlink" x="0px" y="0px" viewBox="0 0 1349 1994.7" enable-background="new 0 0 1349 1994.7" xml:space="preserve">
  <g id="main-route">
    <path id="path" opacity="1" fill-rule="evenodd" clip-rule="evenodd" fill="none" stroke="#FA781E" stroke-linecap="butt" stroke-dasharray="5227" stroke-dashoffset="5227" fill="none" stroke-width="60" stroke-miterlimit="10" d="M3,97.1c272.3,0,544.6,0,816.9,0c100.4,0,201.9-4.1,302.2,0c66.2,2.7,147,19.4,179.4,84
	c49.2,98-43.8,169.6-125.4,203.3c-101.4,41.9-208.6,73.9-314.3,102.5c-105.6,28.6-212.3,53.6-300.1-33
	c-35.8-35.3-73.4-86.7-128.5-46.3C379,447.4,402.6,529.8,465,543.3c56.8,12.3,100.1-0.9,146.1,48.6c41.6,44.7,29,105,65.5,149.7
	c32.4,39.7,67.5,34.9,112.4,38.7c62.7,5.4,116,45.3,130.9,108.3c32.5,138.1-137.6,228.9-235.9,129.9
	c-34.5-34.7-59.3-67.5-113.4-69.1c-65.3-2-122.6,47.6-132.7,111.7c-10.4,65.9,10.1,144.2,16.7,209.8c4,39.8,9.2,76.6-3.6,116
	c-21.5,65.7-97,90.1-110.5,156c-12.9,63,31.3,120.1,95.4,120.1c58.9-0.1,81-34.5,114.4-74.3c60.3-71.9,183.1-70.4,196.3,38.7
	c8.4,69.2,0.6,143.2,0.6,213" />
    <path id="arrow-path" opacity="0" d="M73,97.1c272.3,0,474.6,0,746.9,0c100.4,0,201.9-4.1,302.2,0c66.2,2.7,147,19.4,179.4,84
	c49.2,98-43.8,169.6-125.4,203.3c-101.4,41.9-208.6,73.9-314.3,102.5c-105.6,28.6-212.3,53.6-300.1-33
	c-35.8-35.3-73.4-86.7-128.5-46.3C379,447.4,402.6,529.8,465,543.3c56.8,12.3,100.1-0.9,146.1,48.6c41.6,44.7,29,105,65.5,149.7
	c32.4,39.7,67.5,34.9,112.4,38.7c62.7,5.4,116,45.3,130.9,108.3c32.5,138.1-137.6,228.9-235.9,129.9
	c-34.5-34.7-59.3-67.5-113.4-69.1c-65.3-2-122.6,47.6-132.7,111.7c-10.4,65.9,10.1,144.2,16.7,209.8c4,39.8,9.2,76.6-3.6,116
	c-21.5,65.7-97,90.1-110.5,156c-12.9,63,31.3,120.1,95.4,120.1c58.9-0.1,81-34.5,114.4-74.3c60.3-71.9,183.1-70.4,196.3,38.7
	c8.4,69.2-3.4,230.8-3.4,300.5" />
    <path id="arrow" fill="#FA781E" opacity="0" d="M741.5,1886l1,0l1,0l46.2-99.6l-46.6,21.3l-46.2-22L741.5,1886z M743.1,1813.8l34.1-14.1
		l-34.6,72.9L743.1,1813.8z" />
		<!-- <text id="path-text" text-anchor="middle" font-family="OpenSans Bold Italic" font-size="35" fill="#ccc" transform="matrix(1 0 0 1 714.6447 106.288)" >It’s a journey that’s always changing directions</text> -->
  </g>
</svg>
