<?xml version="1.0" standalone="no"?>
<!DOCTYPE svg PUBLIC "-//W3C//DTD SVG 1.1//EN" "http://www.w3.org/Graphics/SVG/1.1/DTD/svg11.dtd" >
<svg xmlns="http://www.w3.org/2000/svg">
<metadata>Generated by IcoMoon</metadata>
<defs>
<font id="icomoon" horiz-adv-x="1024">
<font-face units-per-em="1024" ascent="960" descent="-64" />
<missing-glyph horiz-adv-x="1024" />
<glyph unicode="&#x20;" horiz-adv-x="512" d="" />
<glyph unicode="&#xe900;" glyph-name="chevron-down" d="M512.099 114.986l-512.099 467.552 85.317 89.095 426.783-389.991 426.584 389.991 85.317-89.095-511.901-467.552z" />
<glyph unicode="&#xe901;" glyph-name="chevron-left" d="M178.986 447.901l467.552 512.099 89.095-85.317-389.991-426.783 389.991-426.584-89.095-85.317-467.552 511.901z" />
<glyph unicode="&#xe902;" glyph-name="chevron-right" d="M845.014 448.099l-467.552-512.099-89.095 85.317 389.991 426.783-389.991 426.584 89.095 85.317 467.552-511.901z" />
<glyph unicode="&#xe903;" glyph-name="chevron-up" d="M1024 313.462l-85.317-89.095-426.584 389.991-426.783-389.991-85.317 89.095 512.099 467.552 511.901-467.552z" />
<glyph unicode="&#xe904;" glyph-name="close" d="M1.406 872.797l85.492 87.241 936.575-917.803-85.492-87.241-936.575 917.803zM0.921 23.080l936.392 936.392 86.371-86.371-936.392-936.392-86.371 86.371z" />
<glyph unicode="&#xe905;" glyph-name="facebook" d="M813.056 960h-133.12c-149.504 0-245.76-98.304-245.76-251.904v-116.736h-133.12c-12.288 0-20.48-10.24-20.48-20.48v-167.936c0-12.288 10.24-20.48 20.48-20.48h133.12v-425.984c0-12.288 10.24-20.48 20.48-20.48h174.080c12.288 0 20.48 10.24 20.48 20.48v425.984h155.648c12.288 0 20.48 10.24 20.48 20.48v167.936c0 6.144-2.048 10.24-6.144 14.336s-8.192 6.144-12.288 6.144h-155.648v98.304c0 47.104 12.288 71.68 73.728 71.68h90.112c12.288 0 20.48 10.24 20.48 20.48v157.696c-2.048 10.24-12.288 20.48-22.528 20.48z" />
<glyph unicode="&#xe906;" glyph-name="filter" d="M380.34 243.12h263.32v-146.28h-263.32v146.28zM156.040 525.94h711.92v-146.28h-711.92v146.28zM0 799h1024v-146.28h-1024v146.28z" />
<glyph unicode="&#xe907;" glyph-name="linkedin" d="M1005.568 341.504v-364.544h-210.944v339.968c0 86.016-30.72 143.36-106.496 143.36-59.392 0-94.208-38.912-108.544-77.824-6.144-14.336-6.144-32.768-6.144-51.2v-354.304h-212.992c0 0 2.048 577.536 0 636.928h210.944v-90.112c0 0 0-2.048-2.048-2.048h2.048v2.048c28.672 43.008 77.824 104.448 190.464 104.448 139.264 0 243.712-92.16 243.712-286.72zM137.216 919.040c-71.68 0-118.784-47.104-118.784-108.544s45.056-110.592 116.736-110.592h2.048c73.728 0 118.784 49.152 118.784 110.592-2.048 61.44-45.056 108.544-118.784 108.544zM30.72-23.040h210.944v636.928h-210.944v-636.928z" />
<glyph unicode="&#xe908;" glyph-name="pinterest" d="M792.576 851.456c-135.168 145.408-360.448 137.216-512 24.576-129.024-98.304-219.136-311.296-110.592-454.656 22.528-28.672 55.296-47.104 90.112-55.296 10.24-2.048 16.384 2.048 20.48 12.288 8.192 18.432 14.336 36.864 16.384 59.392 0 8.192-6.144 12.288-12.288 12.288-98.304 106.496-32.768 239.616 63.488 321.536 83.968 73.728 239.616 141.312 337.92 57.344 67.584-57.344 73.728-165.888 69.632-247.808-4.096-102.4-40.96-210.944-147.456-243.712-34.816-10.24-75.776-6.144-98.304 24.576-26.624 34.816-18.432 77.824-8.192 116.736 16.384 59.392 51.2 143.36 16.384 202.752-40.96 71.68-126.976 6.144-149.504-40.96-14.336-28.672-40.96-122.88-2.048-147.456-40.96-106.496-69.632-221.184-90.112-333.824-8.192-49.152-16.384-104.448-6.144-155.648 0-2.048 12.288-40.96 22.528-55.296-2.048-10.24 12.288-12.288 18.432-6.144 38.912 51.2 77.824 100.352 98.304 161.792 12.288 32.768 16.384 67.584 22.528 102.4 4.096 24.576 14.336 51.2 16.384 75.776 0 0 0 0 0 0 32.768-24.576 77.824-47.104 116.736-55.296 61.44-12.288 135.168 10.24 186.368 47.104 8.192 6.144 16.384 12.288 22.528 18.432 22.528 16.384 45.056 36.864 63.488 61.44 108.544 145.408 71.68 368.64-45.056 497.664z" />
<glyph unicode="&#xe909;" glyph-name="twitter" d="M1009.664 757.248c-36.864-16.384-75.776-26.624-116.736-32.768 43.008 24.576 73.728 65.536 90.112 112.64-38.912-22.528-83.968-40.96-129.024-49.152-36.864 38.912-90.112 63.488-149.504 63.488-112.64 0-204.8-92.16-204.8-204.8 0-16.384 2.048-30.72 6.144-47.104-172.032 10.24-321.536 92.16-421.888 215.040-18.432-30.72-26.624-65.536-26.624-102.4 0-71.68 36.864-133.12 90.112-169.984-32.768 2.048-65.536 10.24-92.16 26.624v-2.048c0-98.304 69.632-182.272 163.84-200.704-16.384-4.096-34.816-6.144-53.248-6.144-12.288 0-26.624 2.048-38.912 4.096 26.624-81.92 100.352-139.264 190.464-141.312-69.632-55.296-157.696-88.064-253.952-88.064-16.384 0-32.768 0-49.152 2.048 90.112-57.344 198.656-92.16 313.344-92.16 374.784 0 581.632 311.296 581.632 581.632v26.624c38.912 26.624 73.728 63.488 100.352 104.448z" />
<glyph unicode="&#xe90a;" glyph-name="arrow" d="M466.944 960c131.072-335.872 278.528-686.080 407.552-1019.904 0 0 0 0 0 0-34.816 24.576-67.584 47.104-100.352 71.68-86.016 63.488-190.464 143.36-276.48 206.848-8.192 6.144-16.384 8.192-26.624 0-116.736-90.112-235.52-178.176-352.256-266.24-4.096-2.048-8.192-4.096-16.384-10.24 120.832 339.968 239.616 677.888 360.448 1017.856 2.048 0 2.048 0 4.096 0z" />
<glyph unicode="&#xe90b;" glyph-name="chatbox" d="M792.576 583.168c-32.768 2.048-65.536 6.144-96.256 4.096-106.496-2.048-202.752-34.816-278.528-112.64-55.296-55.296-81.92-120.832-71.68-200.704 0-4.096 0-6.144 2.048-14.336-28.672 6.144-55.296 8.192-81.92 16.384-20.48 6.144-40.96 6.144-61.44 0-55.296-14.336-110.592-28.672-165.888-40.96-4.096-2.048-8.192-2.048-16.384-4.096 10.24 16.384 18.432 32.768 28.672 47.104 14.336 22.528 26.624 45.056 40.96 67.584 6.144 10.24 4.096 14.336-2.048 22.528-36.864 32.768-63.488 73.728-77.824 120.832-26.624 90.112-2.048 167.936 59.392 235.52 65.536 75.776 149.504 112.64 245.76 126.976 104.448 16.384 206.848 4.096 303.104-47.104 79.872-40.96 139.264-100.352 165.888-188.416 2.048-10.24 4.096-22.528 6.144-32.768zM946.176 151.040c22.528-38.912 45.056-73.728 67.584-112.64-36.864 8.192-71.68 16.384-104.448 24.576-6.144 2.048-10.24 2.048-16.384 4.096-43.008 16.384-83.968 12.288-129.024 4.096-112.64-18.432-215.040 6.144-301.056 81.92-98.304 88.064-94.208 223.232 8.192 307.2 88.064 71.68 188.416 90.112 299.008 75.776 73.728-10.24 141.312-38.912 192.512-94.208 79.872-83.968 79.872-194.56 0-276.48-4.096-6.144-10.24-10.24-16.384-14.336z" />
<glyph unicode="&#xe90c;" glyph-name="email" d="M49.152 779.776c10.24 0 22.528 4.096 32.768 4.096 286.72 0 573.44 0 860.16 0 12.288 0 22.528-2.048 38.912-6.144-8.192-8.192-10.24-12.288-14.336-16.384-139.264-135.168-278.528-270.336-419.84-405.504-28.672-26.624-40.96-26.624-67.584 0-139.264 135.168-278.528 270.336-417.792 403.456-4.096 4.096-10.24 8.192-16.384 12.288 2.048 2.048 2.048 4.096 4.096 8.192zM53.248 95.744c106.496 102.4 208.896 200.704 311.296 299.008 28.672-26.624 55.296-53.248 83.968-79.872 43.008-40.96 88.064-40.96 129.024 0 26.624 26.624 51.2 57.344 77.824 86.016 108.544-104.448 210.944-202.752 317.44-305.152-12.288-2.048-22.528-4.096-30.72-4.096-284.672 0-569.344 0-856.064 0-10.24 0-18.432 2.048-32.768 4.096zM1011.712 130.56c-104.448 100.352-208.896 198.656-313.344 301.056 106.496 102.4 210.944 204.8 321.536 309.248 2.048-16.384 6.144-28.672 6.144-40.96 0-174.080 0-350.208 0-524.288 0-14.336-4.096-30.72-8.192-45.056-2.048 0-4.096 0-6.144 0zM6.144 740.864c110.592-104.448 215.040-206.848 321.536-309.248-104.448-100.352-208.896-200.704-317.44-305.152-4.096 18.432-8.192 32.768-8.192 49.152 0 176.128 0 352.256 0 528.384 0 10.24 2.048 20.48 4.096 36.864z" />
<glyph unicode="&#xe90d;" glyph-name="hamburger" d="M905.216 587.264h-788.48c-16.384 0-28.672 12.288-28.672 28.672v61.44c0 16.384 12.288 28.672 28.672 28.672h788.48c16.384 0 28.672-12.288 28.672-28.672v-61.44c2.048-16.384-12.288-28.672-28.672-28.672zM905.216 398.848h-788.48c-16.384 0-28.672 12.288-28.672 28.672v61.44c0 16.384 12.288 28.672 28.672 28.672h788.48c16.384 0 28.672-12.288 28.672-28.672v-61.44c2.048-14.336-12.288-28.672-28.672-28.672zM905.216 210.432h-788.48c-16.384 0-28.672 12.288-28.672 28.672v61.44c0 16.384 12.288 28.672 28.672 28.672h788.48c16.384 0 28.672-12.288 28.672-28.672v-61.44c2.048-14.336-12.288-28.672-28.672-28.672z" />
<glyph unicode="&#xe90e;" glyph-name="lightbulb" d="M499.712 249.344c-43.008 0-83.968 2.048-126.976 2.048-14.336 0-20.48 4.096-22.528 16.384-12.288 59.392-45.056 106.496-83.968 149.504-83.968 96.256-108.544 206.848-65.536 325.632 45.056 124.928 137.216 196.608 268.288 215.040 188.416 24.576 356.352-122.88 360.448-313.344 2.048-90.112-26.624-167.936-88.064-231.424-40.96-43.008-75.776-90.112-90.112-151.552-2.048-12.288-10.24-16.384-22.528-16.384-40.96 2.048-86.016 2.048-129.024 4.096zM399.36 722.432c-16.384 18.432-30.72 34.816-45.056 51.2-73.728-77.824-63.488-210.944-2.048-268.288 16.384 14.336 30.72 30.72 47.104 45.056-40.96 59.392-40.96 116.736 0 172.032zM507.904 179.712c38.912 0 79.872 0 118.784 0 14.336 0 20.48-4.096 20.48-20.48-2.048-40.96 2.048-83.968-8.192-122.88-14.336-65.536-79.872-106.496-147.456-100.352s-120.832 57.344-126.976 124.928c-2.048 34.816 0 69.632-2.048 102.4 0 12.288 8.192 14.336 18.432 14.336 43.008 2.048 86.016 2.048 126.976 2.048z" />
<glyph unicode="&#xe90f;" glyph-name="nav-arrow-left" d="M24.576 460.288v-20.48l972.8-444.416-208.896 452.608 210.944 450.56-974.848-438.272zM727.040 448l139.264-331.776-710.656 333.824 571.392-2.048z" />
<glyph unicode="&#xe910;" glyph-name="nav-arrow-right" d="M24.576 900.608l210.944-450.56-208.896-454.656 972.8 444.416v20.48l-974.848 440.32zM868.352 450.048l-712.704-333.824 141.312 331.776 571.392 2.048z" />
<glyph unicode="&#xe911;" glyph-name="brain" d="M417.792-10.752c-4.096 0-8.192 0-10.24 0-90.112 4.096-167.936 32.768-231.424 81.92-49.152 40.96-81.92 98.304-94.208 169.984-36.864 225.28 26.624 425.984 190.464 593.92 34.816 36.864 77.824 63.488 124.928 73.728 34.816 8.192 65.536 2.048 90.112-16.384 22.528-18.432 36.864-47.104 38.912-81.92v-43.008c-2.048-104.448-2.048-210.944-2.048-313.344v-366.592c-8.192-63.488-47.104-98.304-106.496-98.304zM425.984 869.888c-6.144 0-14.336 0-20.48-2.048-38.912-8.192-73.728-30.72-104.448-61.44-155.648-159.744-215.040-342.016-178.176-557.056 10.24-61.44 36.864-110.592 79.872-145.408 55.296-45.056 124.928-69.632 206.848-73.728 45.056-4.096 69.632 16.384 73.728 61.44v362.496c0 102.4 0 208.896 2.048 313.344v40.96c-2.048 22.528-10.24 40.96-22.528 51.2-10.24 8.192-22.528 10.24-36.864 10.24zM626.688-8.704c-57.344 0-96.256 26.624-108.544 77.824-6.144 12.288-6.144 28.672-6.144 45.056v645.12c0 6.144 0 10.24 0 14.336 0 10.24 0 22.528 0 34.816 2.048 38.912 18.432 71.68 45.056 88.064 26.624 18.432 63.488 20.48 102.4 6.144 45.056-16.384 83.968-43.008 126.976-92.16 92.16-102.4 147.456-212.992 167.936-335.872 4.096-32.768 6.144-67.584 8.192-102.4v-6.144c-2.048-53.248-6.144-116.736-24.576-176.128-24.576-73.728-75.776-126.976-151.552-161.792-47.104-22.528-96.256-34.816-145.408-38.912-6.144 2.048-10.24 2.048-14.336 2.048zM610.304 871.936c-12.288 0-22.528-2.048-30.72-8.192-16.384-10.24-24.576-30.72-26.624-57.344-2.048-10.24 0-18.432 0-28.672 0-6.144 0-10.24 0-16.384v-645.12c0-12.288 0-24.576 2.048-34.816 10.24-34.816 36.864-51.2 81.92-47.104s88.064 14.336 133.12 34.816c65.536 30.72 108.544 75.776 131.072 137.216 18.432 55.296 22.528 112.64 22.528 163.84v4.096c-2.048 32.768-4.096 67.584-8.192 98.304-20.48 114.688-73.728 217.088-159.744 315.392-36.864 43.008-71.68 67.584-110.592 79.872-12.288 2.048-22.528 4.096-34.816 4.096zM350.208 73.216c-10.24 0-22.528 2.048-34.816 6.144l-12.288 4.096c-12.288 4.096-24.576 8.192-34.816 10.24l-12.288 6.144-2.048 12.288c-2.048 6.144-8.192 12.288-16.384 20.48-4.096 4.096-8.192 6.144-10.24 10.24-22.528 22.528-34.816 53.248-43.008 83.968-4.096 6.144-4.096 12.288-4.096 16.384v4.096c2.048 12.288 10.24 20.48 20.48 26.624 12.288 6.144 26.624 4.096 38.912-2.048 8.192-4.096 14.336-12.288 18.432-16.384 2.048-2.048 4.096-6.144 8.192-8.192 0 0 0 2.048 0 2.048-2.048 8.192-2.048 22.528 4.096 32.768 4.096 8.192 10.24 12.288 18.432 14.336h4.096c8.192 0 16.384-4.096 20.48-6.144 12.288-8.192 22.528-16.384 28.672-22.528 8.192-8.192 14.336-14.336 24.576-18.432 12.288-6.144 28.672-6.144 32.768 2.048 2.048 4.096 2.048 12.288 2.048 18.432 0 12.288 0 22.528-4.096 28.672-6.144 10.24-20.48 14.336-36.864 20.48-43.008 12.288-75.776 18.432-104.448 20.48-20.48 0-36.864 2.048-51.2 10.24-18.432 6.144-36.864 26.624-45.056 49.152-16.384 32.768-12.288 71.68 8.192 100.352 14.336 16.384 34.816 28.672 55.296 28.672 18.432 2.048 36.864-4.096 49.152-16.384 14.336-14.336 18.432-28.672 24.576-43.008 4.096-12.288 8.192-22.528 14.336-26.624 14.336-10.24 36.864 0 51.2 10.24 8.192 6.144 14.336 12.288 16.384 18.432 2.048 4.096 2.048 10.24 0 14.336-2.048 2.048-6.144 4.096-10.24 8.192-10.24 6.144-28.672 16.384-30.72 36.864v2.048c0 20.48 18.432 38.912 38.912 43.008 8.192 2.048 18.432 2.048 26.624 0 2.048 0 4.096 0 6.144 0-6.144 8.192-16.384 16.384-28.672 18.432s-28.672 0-40.96-8.192l-8.192-4.096c-16.384-8.192-36.864-18.432-59.392-10.24l-2.048 2.048c-18.432 12.288-24.576 30.72-26.624 43.008-6.144 28.672-2.048 61.44 12.288 88.064 10.24 20.48 24.576 32.768 43.008 38.912 24.576 8.192 47.104-6.144 63.488-16.384 8.192-6.144 18.432-10.24 24.576-12.288 2.048 0 4.096 0 4.096 0 0 2.048 0 8.192-4.096 14.336-2.048 4.096-6.144 8.192-8.192 10.24-8.192 10.24-18.432 22.528-22.528 38.912-4.096 18.432 2.048 34.816 14.336 47.104s30.72 18.432 49.152 16.384l-8.192-40.96c-4.096 0-10.24 0-12.288-4.096-2.048-2.048-4.096-6.144-4.096-10.24 2.048-6.144 8.192-12.288 14.336-20.48 4.096-4.096 8.192-8.192 10.24-14.336 10.24-14.336 14.336-32.768 10.24-47.104-2.048-12.288-10.24-22.528-22.528-26.624-8.192-4.096-18.432-4.096-22.528-4.096h-2.048c-16.384 2.048-30.72 10.24-40.96 18.432-14.336 8.192-24.576 14.336-30.72 12.288-10.24-2.048-16.384-14.336-18.432-18.432-10.24-18.432-14.336-43.008-8.192-61.44 2.048-10.24 4.096-14.336 6.144-14.336 4.096 0 16.384 6.144 22.528 8.192l6.144 2.048c20.48 12.288 45.056 16.384 69.632 12.288 26.624-6.144 49.152-22.528 59.392-43.008 6.144-10.24 6.144-22.528 2.048-32.768-2.048-8.192-8.192-14.336-16.384-18.432-16.384-8.192-22.528-4.096-32.768-4.096-6.144 0-12.288 0-16.384 0-2.048 0-2.048 0-4.096-2.048 2.048-2.048 6.144-4.096 8.192-4.096 6.144-4.096 14.336-8.192 20.48-14.336l2.048-2.048c12.288-14.336 14.336-36.864 6.144-55.296-6.144-16.384-20.48-28.672-30.72-36.864-36.864-26.624-73.728-30.72-100.352-10.24-16.384 12.288-24.576 30.72-28.672 47.104-4.096 10.24-8.192 20.48-14.336 26.624-6.144 4.096-14.336 4.096-18.432 4.096-10.24 0-20.48-6.144-26.624-14.336-10.24-14.336-12.288-38.912-4.096-57.344v-2.048c4.096-12.288 14.336-22.528 22.528-26.624 12.288-4.096 22.528-6.144 36.864-6.144 34.816-2.048 69.632-8.192 116.736-20.48 22.528-6.144 45.056-14.336 59.392-36.864 12.288-16.384 12.288-36.864 12.288-51.2 0-10.24 0-22.528-6.144-34.816-8.192-16.384-22.528-24.576-40.96-28.672-14.336-2.048-30.72 2.048-45.056 8.192s-22.528 16.384-32.768 24.576c-4.096 2.048-6.144 6.144-8.192 8.192 0-8.192 0-18.432-6.144-28.672-4.096-8.192-14.336-14.336-26.624-16.384s-26.624 2.048-34.816 12.288c-6.144 4.096-10.24 8.192-12.288 12.288-2.048 2.048-2.048 2.048-4.096 4.096 6.144-22.528 16.384-43.008 30.72-59.392 2.048-2.048 6.144-6.144 8.192-8.192 8.192-8.192 18.432-16.384 24.576-28.672 10.24-2.048 18.432-6.144 28.672-10.24l14.336-4.096c10.24-4.096 24.576-6.144 34.816-2.048h2.048c2.048 2.048 6.144 4.096 8.192 8.192s2.048 6.144 2.048 10.24c-4.096 0-10.24 2.048-12.288 2.048-8.192 2.048-16.384 0-22.528-2.048l-16.384 36.864c14.336 6.144 30.72 8.192 45.056 4.096 20.48-4.096 34.816-14.336 40.96-30.72 4.096-14.336 4.096-28.672-2.048-40.96s-16.384-22.528-28.672-26.624c-10.24-4.096-20.48-8.192-32.768-8.192zM661.504 73.216c-10.24 0-20.48 2.048-30.72 6.144-26.624 10.24-40.96 43.008-30.72 69.632 6.144 16.384 20.48 26.624 40.96 30.72 14.336 2.048 30.72 0 45.056-4.096l-14.336-38.912c-8.192 4.096-16.384 6.144-24.576 4.096-2.048 0-8.192-2.048-10.24-6.144s2.048-14.336 8.192-16.384h2.048c10.24-4.096 18.432-4.096 34.816 2.048l14.336 4.096c10.24 4.096 18.432 6.144 28.672 10.24 6.144 12.288 16.384 20.48 24.576 28.672 2.048 2.048 6.144 6.144 8.192 8.192 14.336 14.336 24.576 36.864 30.72 59.392-4.096-2.048-6.144-6.144-10.24-10.24-2.048-2.048-4.096-4.096-6.144-6.144-10.24-10.24-22.528-14.336-36.864-12.288-10.24 2.048-20.48 8.192-26.624 16.384s-6.144 18.432-4.096 26.624c-2.048-2.048-6.144-6.144-8.192-8.192-10.24-8.192-20.48-18.432-32.768-24.576-14.336-6.144-30.72-10.24-45.056-8.192-18.432 2.048-34.816 12.288-40.96 28.672-6.144 12.288-6.144 26.624-6.144 34.816 0 16.384 0 34.816 12.288 53.248 14.336 22.528 36.864 30.72 57.344 36.864 47.104 12.288 81.92 20.48 116.736 20.48 16.384 0 26.624 2.048 38.912 6.144 10.24 4.096 18.432 14.336 24.576 26.624v2.048c8.192 18.432 8.192 43.008-4.096 59.392-6.144 6.144-16.384 12.288-26.624 12.288-4.096 0-12.288 0-18.432-6.144s-10.24-16.384-12.288-26.624c-6.144-16.384-12.288-34.816-28.672-47.104-26.624-18.432-65.536-14.336-100.352 10.24-16.384 12.288-26.624 24.576-30.72 36.864-8.192 18.432-4.096 40.96 6.144 55.296l2.048 2.048c6.144 6.144 14.336 10.24 20.48 14.336 2.048 2.048 6.144 4.096 8.192 4.096 0 0-2.048 0-4.096 2.048-4.096 0-10.24 0-18.432 0-10.24 0-16.384-4.096-32.768 4.096-8.192 4.096-14.336 10.24-16.384 18.432-4.096 10.24-2.048 22.528 2.048 32.768 10.24 20.48 32.768 36.864 59.392 43.008 22.528 6.144 49.152 0 69.632-12.288l4.096-2.048c8.192-4.096 18.432-10.24 22.528-8.192 2.048 2.048 4.096 4.096 6.144 14.336 6.144 20.48 2.048 45.056-8.192 63.488-2.048 6.144-8.192 16.384-18.432 18.432-8.192 2.048-16.384-2.048-30.72-12.288-12.288-8.192-26.624-16.384-40.96-18.432h-2.048c-6.144 0-14.336 0-22.528 4.096-10.24 6.144-18.432 14.336-22.528 26.624-4.096 14.336 0 32.768 10.24 47.104 4.096 4.096 6.144 8.192 10.24 14.336 6.144 8.192 12.288 16.384 14.336 22.528 0 4.096-2.048 8.192-4.096 8.192-4.096 4.096-8.192 6.144-12.288 4.096l-8.192 40.96c18.432 4.096 36.864-2.048 49.152-16.384 12.288-12.288 18.432-30.72 14.336-47.104s-14.336-28.672-22.528-40.96c-4.096-4.096-6.144-8.192-8.192-10.24-4.096-6.144-4.096-12.288-4.096-14.336 0 0 2.048 0 4.096 0 8.192 2.048 16.384 6.144 24.576 12.288 16.384 10.24 38.912 22.528 63.488 16.384 18.432-4.096 32.768-18.432 43.008-38.912 14.336-26.624 18.432-61.44 12.288-90.112-2.048-12.288-6.144-30.72-26.624-40.96l-2.048-2.048c-22.528-10.24-43.008 2.048-59.392 10.24l-6.144 4.096c-14.336 8.192-28.672 12.288-40.96 8.192-12.288-2.048-22.528-10.24-28.672-18.432 2.048 0 4.096 0 6.144 0 8.192 0 18.432 2.048 26.624 0 22.528-4.096 38.912-22.528 38.912-43.008v-2.048c-2.048-20.48-20.48-30.72-30.72-36.864-4.096-2.048-8.192-4.096-10.24-8.192s-2.048-10.24 0-14.336c0-2.048 4.096-8.192 18.432-20.48 14.336-10.24 36.864-20.48 51.2-10.24 6.144 4.096 10.24 14.336 14.336 26.624 4.096 14.336 10.24 28.672 24.576 43.008 14.336 12.288 30.72 18.432 51.2 16.384s43.008-12.288 55.296-28.672c20.48-28.672 24.576-69.632 8.192-100.352-10.24-24.576-26.624-43.008-47.104-49.152-14.336-6.144-30.72-10.24-53.248-10.24-28.672-2.048-61.44-8.192-104.448-20.48-14.336-4.096-28.672-10.24-34.816-20.48-4.096-8.192-4.096-18.432-4.096-30.72 0-6.144 0-14.336 2.048-18.432 4.096-8.192 20.48-6.144 32.768-2.048 8.192 4.096 16.384 10.24 24.576 18.432s16.384 14.336 28.672 22.528c6.144 4.096 14.336 6.144 22.528 6.144h4.096c8.192-2.048 14.336-6.144 18.432-14.336 6.144-10.24 6.144-24.576 4.096-32.768 0 0 0-2.048 0-2.048s2.048 2.048 2.048 2.048c6.144 8.192 14.336 16.384 24.576 22.528 12.288 6.144 26.624 8.192 38.912 2.048 10.24-6.144 18.432-14.336 20.48-26.624v-4.096c0-4.096 0-10.24-4.096-16.384-8.192-30.72-20.48-59.392-43.008-83.968-4.096-4.096-6.144-6.144-10.24-10.24-8.192-6.144-14.336-14.336-16.384-20.48l-8.192-4.096-12.288-2.048c-12.288-2.048-22.528-6.144-36.864-10.24l-12.288-6.144c-10.24-4.096-20.48-8.192-34.816-8.192z" />
<glyph unicode="&#xe912;" glyph-name="map" d="M780.288 867.84c0-69.632 0-137.216 0-206.848-10.24 0-22.528 0-34.816 0 0 51.2 0 100.352 0 153.6-6.144-2.048-8.192-2.048-12.288-4.096-61.44-24.576-122.88-51.2-182.272-75.776-8.192-4.096-12.288-8.192-12.288-18.432 0-186.368 0-370.688 0-557.056 0-4.096 0-8.192 0-14.336 28.672 12.288 57.344 22.528 86.016 34.816 6.144-8.192 12.288-18.432 18.432-28.672-16.384-6.144-32.768-14.336-47.104-20.48-20.48-8.192-40.96-18.432-61.44-26.624-8.192-2.048-18.432-2.048-24.576 0-71.68 28.672-145.408 59.392-217.088 90.112-8.192 4.096-16.384 4.096-24.576 0-75.776-32.768-153.6-63.488-229.376-96.256-6.144 2.048-10.24 0-18.432-2.048 0 6.144 0 12.288 0 16.384 0 208.896 0 417.792 0 624.64 0 12.288 4.096 18.432 14.336 22.528 77.824 32.768 153.6 65.536 231.424 96.256 10.24 4.096 18.432 4.096 28.672 0 71.68-30.72 141.312-59.392 212.992-90.112 10.24-4.096 18.432-4.096 28.672 0 75.776 32.768 151.552 63.488 227.328 96.256 4.096 2.048 8.192 4.096 16.384 6.144zM55.296 146.944c6.144 2.048 10.24 4.096 14.336 4.096 59.392 24.576 120.832 51.2 180.224 75.776 10.24 4.096 14.336 10.24 14.336 20.48 0 184.32 0 368.64 0 552.96 0 4.096 0 8.192 0 14.336-6.144-2.048-12.288-4.096-16.384-6.144-57.344-24.576-114.688-49.152-174.080-71.68-12.288-4.096-16.384-10.24-16.384-24.576 0-182.272 0-366.592 0-548.864-2.048-4.096-2.048-8.192-2.048-16.384zM296.96 816.64c0-4.096-2.048-4.096-2.048-6.144 0-188.416 0-378.88 0-567.296 0-10.24 6.144-12.288 12.288-16.384 49.152-20.48 98.304-40.96 147.456-61.44 14.336-6.144 30.72-12.288 47.104-18.432 0 4.096 0 6.144 0 10.24 0 188.416 0 374.784 0 563.2 0 10.24-4.096 12.288-12.288 16.384-34.816 14.336-69.632 28.672-104.448 43.008-26.624 12.288-55.296 24.576-88.064 36.864zM796.672-23.040c-12.288 18.432-22.528 36.864-34.816 55.296-59.392 94.208-120.832 188.416-180.224 284.672-4.096 8.192-8.192 18.432-8.192 26.624 0 47.104 0 94.208 0 141.312 0 6.144 4.096 14.336 8.192 18.432 38.912 38.912 75.776 77.824 114.688 114.688 4.096 4.096 12.288 8.192 18.432 8.192 53.248 0 108.544 0 161.792 0 6.144 0 14.336-4.096 20.48-8.192 38.912-38.912 77.824-75.776 116.736-114.688 4.096-4.096 8.192-12.288 8.192-18.432 0-49.152 0-96.256 0-145.408 0-6.144-2.048-12.288-4.096-16.384-71.68-114.688-143.36-227.328-217.088-342.016 0 0-2.048-2.048-4.096-4.096zM796.672 42.496c2.048 2.048 2.048 2.048 4.096 4.096 61.44 96.256 120.832 190.464 182.272 286.72 4.096 4.096 4.096 12.288 4.096 18.432 0 38.912 0 79.872 0 118.784 0 6.144-4.096 16.384-8.192 20.48-30.72 32.768-63.488 63.488-94.208 94.208-4.096 4.096-12.288 8.192-20.48 8.192-45.056 0-90.112 0-133.12 0-6.144 0-14.336-4.096-20.48-8.192-32.768-30.72-63.488-63.488-94.208-94.208-4.096-4.096-8.192-14.336-8.192-20.48 0-38.912 0-77.824 0-116.736 0-8.192 2.048-16.384 6.144-24.576 24.576-40.96 51.2-81.92 77.824-122.88 34.816-55.296 69.632-108.544 104.448-163.84zM882.688 398.848c6.144-22.528-8.192-38.912-24.576-57.344-18.432-18.432-34.816-24.576-59.392-24.576-26.624 0-45.056 8.192-63.488 26.624-16.384 18.432-24.576 34.816-24.576 59.392 0 26.624 6.144 45.056 26.624 63.488 18.432 16.384 34.816 24.576 59.392 24.576 26.624 0 45.056-6.144 63.488-26.624 22.528-26.624 22.528-24.576 22.528-65.536zM849.92 402.944c0 32.768-20.48 51.2-57.344 51.2-24.576 0-47.104-22.528-47.104-49.152 0-30.72 20.48-55.296 47.104-55.296 36.864 2.048 57.344 20.48 57.344 53.248z" />
<glyph unicode="&#xe913;" glyph-name="coffee-cup" d="M692.224 97.792c30.72-4.096 53.248-18.432 63.488-45.056 16.384-45.056-16.384-90.112-67.584-90.112-75.776 0-149.504 0-225.28 0-79.872 0-159.744 0-239.616 0-53.248 0-88.064 51.2-63.488 98.304 10.24 18.432 24.576 30.72 47.104 34.816 4.096 0 6.144 2.048 10.24 2.048 0 0 0 0 0 0-20.48 26.624-40.96 51.2-57.344 77.824-32.768 51.2-45.056 110.592-55.296 167.936-8.192 47.104-14.336 92.16-20.48 139.264-8.192 55.296 20.48 88.064 75.776 88.064 198.656 0 399.36 0 598.016 0 47.104 0 75.776-30.72 73.728-75.776 0-16.384-2.048-30.72-4.096-47.104 16.384-2.048 32.768-4.096 47.104-8.192 55.296-16.384 92.16-67.584 88.064-124.928s-47.104-102.4-106.496-108.544c-24.576-2.048-51.2-2.048-75.776-2.048-4.096 0-10.24-2.048-12.288-6.144-18.432-36.864-43.008-69.632-75.776-100.352zM456.704 499.2c-94.208 0-188.416 0-282.624 0-22.528 0-30.72-8.192-26.624-26.624 8.192-53.248 14.336-106.496 24.576-159.744 16.384-92.16 59.392-169.984 143.36-219.136 6.144-2.048 10.24-10.24 12.288-16.384 4.096-16.384-6.144-26.624-24.576-28.672-22.528 0-45.056 0-67.584 0-12.288 0-20.48-4.096-20.48-16.384 0-10.24 8.192-16.384 20.48-16.384 2.048 0 4.096 0 6.144 0 143.36 0 286.72 0 430.080 0 4.096 0 10.24-2.048 14.336 0 6.144 4.096 12.288 10.24 12.288 14.336 0 6.144-6.144 12.288-12.288 16.384-2.048 2.048-8.192 2.048-14.336 2.048-20.48 0-43.008 0-63.488 0-18.432 0-28.672 14.336-22.528 30.72 2.048 8.192 10.24 14.336 18.432 18.432 57.344 36.864 98.304 86.016 120.832 151.552 22.528 71.68 34.816 143.36 40.96 217.088 2.048 26.624-4.096 30.72-30.72 30.72-94.208 2.048-186.368 2.048-278.528 2.048zM790.528 253.44c18.432 0 36.864-2.048 53.248 0 40.96 2.048 69.632 34.816 67.584 73.728s-34.816 67.584-75.776 67.584c-12.288 0-20.48-2.048-20.48-16.384 0-6.144-2.048-12.288-2.048-16.384-6.144-34.816-14.336-71.68-22.528-108.544zM507.904 841.216c0-26.624-10.24-53.248-30.72-75.776-28.672-32.768-30.72-61.44-2.048-98.304 10.24-12.288 8.192-26.624-2.048-36.864s-24.576-8.192-36.864 4.096c-38.912 38.912-43.008 108.544-8.192 151.552 6.144 8.192 14.336 14.336 18.432 24.576 16.384 24.576 12.288 55.296-8.192 79.872-12.288 14.336-12.288 28.672 0 38.912s24.576 8.192 38.912-6.144c20.48-22.528 30.72-49.152 30.72-81.92zM651.264 785.92c0-22.528-8.192-40.96-24.576-57.344-18.432-22.528-20.48-36.864-2.048-61.44 10.24-14.336 8.192-26.624-2.048-36.864-12.288-8.192-24.576-8.192-36.864 4.096-30.72 32.768-32.768 83.968-2.048 120.832 22.528 26.624 22.528 36.864 4.096 65.536-8.192 10.24-6.144 26.624 4.096 34.816s24.576 8.192 34.816-2.048c16.384-20.48 24.576-43.008 24.576-67.584zM350.208 787.968c0-24.576-8.192-45.056-24.576-61.44-18.432-20.48-18.432-36.864-2.048-59.392 10.24-14.336 10.24-28.672-2.048-38.912s-26.624-6.144-38.912 8.192c-28.672 34.816-28.672 83.968 0 116.736 20.48 24.576 22.528 36.864 4.096 63.488-8.192 12.288-6.144 26.624 4.096 34.816s24.576 8.192 34.816-2.048c16.384-14.336 24.576-36.864 24.576-61.44z" />
<glyph unicode="&#xe914;" glyph-name="compass" d="M423.936 775.68c-32.768 61.44-26.624 112.64 16.384 149.504 38.912 32.768 94.208 34.816 135.168 4.096 45.056-34.816 53.248-86.016 20.48-153.6 129.024-30.72 225.28-102.4 286.72-221.184 45.056-88.064 57.344-182.272 34.816-280.576-47.104-202.752-229.376-339.968-432.128-325.632-200.704 12.288-360.448 165.888-387.072 362.496-28.672 210.944 108.544 415.744 325.632 464.896zM509.952 9.728c194.56 0 354.304 157.696 356.352 352.256 0 198.656-155.648 358.4-354.304 358.4-196.608 0-350.208-155.648-356.352-342.016-4.096-221.184 169.984-370.688 354.304-368.64zM542.72 812.544c18.432 16.384 18.432 47.104 0 63.488-18.432 18.432-51.2 16.384-67.584-4.096-14.336-18.432-14.336-47.104 4.096-59.392 2.048 22.528 14.336 34.816 30.72 34.816 18.432 0 28.672-12.288 32.768-34.816zM479.232 673.28c0-22.528 0-43.008 0-65.536 0-12.288 4.096-22.528 16.384-28.672s22.528-6.144 34.816 2.048c12.288 8.192 12.288 18.432 12.288 32.768 0 20.48 0 38.912 0 59.392 69.632-6.144 129.024-34.816 182.272-83.968-45.056-28.672-88.064-55.296-133.12-81.92-40.96-24.576-81.92-49.152-120.832-75.776-6.144-4.096-12.288-10.24-16.384-16.384-51.2-79.872-100.352-161.792-151.552-241.664-4.096-6.144-8.192-12.288-12.288-20.48-47.104 53.248-75.776 112.64-83.968 184.32 14.336 0 28.672 0 43.008 0 20.48 0 32.768 10.24 34.816 30.72 0 20.48-10.24 30.72-32.768 32.768-8.192 0-14.336 0-22.528 0-6.144 0-14.336 0-22.528 0 8.192 133.12 124.928 260.096 272.384 272.384zM299.008 142.848c28.672 18.432 55.296 34.816 81.92 51.2 59.392 36.864 120.832 75.776 180.224 112.64 6.144 4.096 12.288 10.24 16.384 16.384 49.152 79.872 100.352 159.744 149.504 239.616 2.048 4.096 6.144 8.192 10.24 14.336 49.152-51.2 69.632-112.64 77.824-180.224-14.336 0-26.624 0-40.96 0-8.192 0-14.336 0-22.528 0-18.432-2.048-28.672-14.336-28.672-32.768 0-16.384 12.288-28.672 28.672-28.672 20.48 0 38.912 0 59.392 0-12.288-149.504-131.072-266.24-266.24-276.48 0 12.288 0 24.576 0 36.864 0 26.624-12.288 40.96-32.768 38.912-20.48 0-30.72-14.336-30.72-38.912 0-12.288 0-24.576 0-36.864-71.68 6.144-131.072 34.816-182.272 83.968zM512 390.656c14.336 0 26.624-12.288 26.624-26.624s-12.288-24.576-26.624-24.576c-14.336 0-24.576 12.288-24.576 24.576-2.048 14.336 10.24 26.624 24.576 26.624z" />
</font>
</defs>
</svg>
